<svg width="158" height="34" viewBox="0 0 158 34" fill="none" xmlns="http://www.w3.org/2000/svg">
<path d="M0.919434 30.4452C6.48918 30.4452 11.0043 25.93 11.0043 20.3603C11.0043 14.7905 6.48918 10.2754 0.919434 10.2754V17.3348C2.59034 17.3348 3.94488 18.6893 3.94488 20.3603C3.94488 22.0312 2.59034 23.3857 0.919434 23.3857V30.4452Z" fill="white"/>
<path d="M34.5357 13.6374C32.8124 13.0914 30.9772 12.7969 29.0731 12.7969C19.094 12.7969 11.0044 20.8866 11.0044 30.8656C11.0044 31.8672 11.0859 32.8498 11.2426 33.8071H22.4693C22.0685 32.9086 21.8457 31.9131 21.8457 30.8656C21.8457 26.874 25.0815 23.6381 29.0731 23.6381C31.2547 23.6381 33.2105 24.6047 34.5357 26.133V13.6374Z" fill="white"/>
<path d="M2.69238 0.191406C3.52849 7.75498 9.94094 13.638 17.7274 13.638C25.5137 13.638 31.9262 7.75498 32.7623 0.191406H21.9441C21.2762 1.86568 19.6399 3.04878 17.7274 3.04878C15.8148 3.04878 14.1786 1.86568 13.5106 0.191406H2.69238Z" fill="white"/>
<path d="M46.2349 7.02188H51.8661C53.389 7.02188 54.5578 7.14141 55.3724 7.38047C56.1958 7.61953 56.8112 7.96484 57.2185 8.41641C57.6346 8.86797 57.9135 9.41693 58.0552 10.0633C58.2057 10.7008 58.281 11.6924 58.281 13.0383V14.9109C58.281 16.2833 58.1393 17.2839 57.856 17.9125C57.5726 18.5411 57.0502 19.0237 56.2888 19.3602C55.5362 19.6966 54.5489 19.8648 53.3271 19.8648H51.8263V28.5242H46.2349V7.02188ZM51.8263 10.7008V16.1727C51.9856 16.1815 52.1229 16.1859 52.238 16.1859C52.7515 16.1859 53.1057 16.062 53.3005 15.8141C53.5041 15.5573 53.606 15.0305 53.606 14.2336V12.4672C53.606 11.7323 53.4909 11.2542 53.2606 11.0328C53.0304 10.8115 52.5523 10.7008 51.8263 10.7008Z" fill="white"/>
<path d="M68.8528 7.02188L72.0536 28.5242H66.3294L66.0505 24.6594H64.045L63.713 28.5242H57.9224L60.7646 7.02188H68.8528ZM65.8911 20.8477C65.6078 18.4128 65.3244 15.4068 65.0411 11.8297C64.4744 15.938 64.1203 18.944 63.9786 20.8477H65.8911Z" fill="white"/>
<path d="M85.4942 7.02188V28.5242H80.5935L77.6849 18.7492V28.5242H73.0099V7.02188H77.6849L80.8192 16.7039V7.02188H85.4942Z" fill="white"/>
<path d="M97.4075 7.02188L100.608 28.5242H94.8841L94.6052 24.6594H92.5997L92.2677 28.5242H86.4771L89.3192 7.02188H97.4075ZM94.4458 20.8477C94.1625 18.4128 93.8791 15.4068 93.5958 11.8297C93.0291 15.938 92.675 18.944 92.5333 20.8477H94.4458Z" fill="white"/>
<path d="M101.565 7.02188H105.748C108.449 7.02188 110.273 7.14583 111.22 7.39375C112.176 7.64167 112.902 8.04896 113.398 8.61563C113.894 9.18229 114.204 9.81536 114.328 10.5148C114.452 11.2055 114.514 12.569 114.514 14.6055V22.1359C114.514 24.0661 114.421 25.3589 114.235 26.0141C114.058 26.6604 113.743 27.1695 113.292 27.5414C112.84 27.9044 112.283 28.1612 111.618 28.3117C110.954 28.4534 109.954 28.5242 108.617 28.5242H101.565V7.02188ZM107.156 10.7008V24.8453C107.962 24.8453 108.458 24.6859 108.643 24.3672C108.829 24.0396 108.922 23.1586 108.922 21.7242V13.3703C108.922 12.3964 108.891 11.7721 108.829 11.4977C108.767 11.2232 108.626 11.024 108.404 10.9C108.183 10.7672 107.767 10.7008 107.156 10.7008Z" fill="white"/>
<path d="M129.375 19.6125C129.375 21.7729 129.322 23.3047 129.216 24.2078C129.119 25.1021 128.8 25.9211 128.26 26.6648C127.729 27.4086 127.007 27.9797 126.095 28.3781C125.183 28.7766 124.121 28.9758 122.908 28.9758C121.756 28.9758 120.721 28.7898 119.8 28.418C118.888 28.0372 118.153 27.4706 117.595 26.718C117.037 25.9654 116.705 25.1464 116.599 24.2609C116.493 23.3755 116.44 21.826 116.44 19.6125V15.9336C116.44 13.7732 116.488 12.2458 116.586 11.3516C116.692 10.4484 117.011 9.625 117.542 8.88125C118.082 8.1375 118.808 7.56641 119.72 7.16797C120.632 6.76953 121.694 6.57031 122.908 6.57031C124.059 6.57031 125.09 6.76068 126.002 7.14141C126.923 7.51328 127.662 8.07552 128.22 8.82813C128.778 9.58073 129.11 10.3997 129.216 11.2852C129.322 12.1706 129.375 13.7201 129.375 15.9336V19.6125ZM123.784 12.5469C123.784 11.5464 123.727 10.9089 123.611 10.6344C123.505 10.351 123.279 10.2094 122.934 10.2094C122.642 10.2094 122.416 10.3245 122.257 10.5547C122.106 10.776 122.031 11.4401 122.031 12.5469V22.5875C122.031 23.8359 122.08 24.6063 122.177 24.8984C122.283 25.1906 122.522 25.3367 122.894 25.3367C123.275 25.3367 123.518 25.1685 123.625 24.832C123.731 24.4956 123.784 23.6943 123.784 22.4281V12.5469Z" fill="white"/>
<path d="M142.803 7.02188L140.85 16.5313L143.799 28.5242H138.619C137.999 26.3815 137.433 23.774 136.919 20.7016C136.778 22.0563 136.583 23.4951 136.335 25.018L135.804 28.5242H130.358L132.377 16.5313L130.358 7.02188H135.764C135.861 7.6151 136.056 8.60234 136.348 9.98359C136.578 11.0372 136.769 12.0023 136.919 12.8789L138.115 7.02188H142.803Z" fill="white"/>
<path d="M157.08 7.02188V28.5242H152.179L149.271 18.7492V28.5242H144.596V7.02188H149.271L152.405 16.7039V7.02188H157.08Z" fill="white"/>
</svg>
