<svg width="226" height="45" viewBox="0 0 226 45" fill="none" xmlns="http://www.w3.org/2000/svg">
<path d="M35.0939 35.5749C40.6636 35.5749 45.1787 31.0597 45.1787 25.4901C45.1787 19.9203 40.6636 15.4052 35.0939 15.4052V22.4645C36.7648 22.4645 38.1193 23.8191 38.1193 25.4901C38.1193 27.1609 36.7648 28.5155 35.0939 28.5155V35.5749Z" fill="#171717"/>
<path d="M68.7101 18.7669C66.9868 18.2209 65.1516 17.9264 63.2474 17.9264C53.2683 17.9264 45.1788 26.0161 45.1788 35.9951C45.1788 36.9968 45.2603 37.9794 45.417 38.9366H56.6436C56.2429 38.0381 56.0201 37.0427 56.0201 35.9951C56.0201 32.0035 59.2558 28.7676 63.2474 28.7676C65.4291 28.7676 67.3849 29.7343 68.7101 31.2626V18.7669Z" fill="#171717"/>
<path d="M36.8669 5.32031C37.703 12.8839 44.1155 18.7669 51.9019 18.7669C59.6883 18.7669 66.1008 12.8839 66.9368 5.32031H56.1186C55.4507 6.99459 53.8144 8.17768 51.9019 8.17768C49.9893 8.17768 48.3531 6.99459 47.6851 5.32031H36.8669Z" fill="#171717"/>
<path d="M80.4095 12.1513H86.0407C87.5636 12.1513 88.7324 12.2708 89.547 12.5099C90.3704 12.7489 90.9858 13.0942 91.3931 13.5458C91.8092 13.9974 92.0881 14.5463 92.2298 15.1927C92.3803 15.8302 92.4556 16.8218 92.4556 18.1677V20.0403C92.4556 21.4127 92.3139 22.4132 92.0306 23.0419C91.7472 23.6705 91.2248 24.1531 90.4634 24.4896C89.7108 24.826 88.7235 24.9942 87.5017 24.9942H86.0009V33.6536H80.4095V12.1513ZM86.0009 15.8302V21.3021C86.1603 21.3109 86.2975 21.3153 86.4126 21.3153C86.9261 21.3153 87.2803 21.1914 87.4751 20.9435C87.6787 20.6867 87.7806 20.1599 87.7806 19.363V17.5966C87.7806 16.8617 87.6655 16.3836 87.4353 16.1622C87.205 15.9409 86.7269 15.8302 86.0009 15.8302Z" fill="#171717"/>
<path d="M103.027 12.1513L106.228 33.6536H100.504L100.225 29.7888H98.2196L97.8876 33.6536H92.097L94.9392 12.1513H103.027ZM100.066 25.9771C99.7824 23.5422 99.4991 20.5362 99.2157 16.9591C98.6491 21.0674 98.2949 24.0734 98.1532 25.9771H100.066Z" fill="#171717"/>
<path d="M119.669 12.1513V33.6536H114.768L111.859 23.8786V33.6536H107.184V12.1513H111.859L114.994 21.8333V12.1513H119.669Z" fill="#171717"/>
<path d="M131.582 12.1513L134.783 33.6536H129.059L128.78 29.7888H126.774L126.442 33.6536H120.652L123.494 12.1513H131.582ZM128.62 25.9771C128.337 23.5422 128.054 20.5362 127.77 16.9591C127.204 21.0674 126.85 24.0734 126.708 25.9771H128.62Z" fill="#171717"/>
<path d="M135.739 12.1513H139.923C142.623 12.1513 144.447 12.2752 145.395 12.5231C146.351 12.7711 147.077 13.1784 147.573 13.745C148.069 14.3117 148.378 14.9448 148.502 15.6442C148.626 16.3349 148.688 17.6984 148.688 19.7349V27.2653C148.688 29.1955 148.595 30.4883 148.409 31.1435C148.232 31.7898 147.918 32.2989 147.466 32.6708C147.015 33.0338 146.457 33.2906 145.793 33.4411C145.129 33.5828 144.128 33.6536 142.792 33.6536H135.739V12.1513ZM141.331 15.8302V29.9747C142.136 29.9747 142.632 29.8153 142.818 29.4966C143.004 29.169 143.097 28.288 143.097 26.8536V18.4997C143.097 17.5257 143.066 16.9015 143.004 16.6271C142.942 16.3526 142.8 16.1534 142.579 16.0294C142.358 15.8966 141.942 15.8302 141.331 15.8302Z" fill="#171717"/>
<path d="M163.55 24.7419C163.55 26.9023 163.497 28.4341 163.391 29.3372C163.293 30.2315 162.975 31.0505 162.434 31.7942C161.903 32.538 161.182 33.1091 160.27 33.5075C159.358 33.906 158.295 34.1052 157.082 34.1052C155.931 34.1052 154.895 33.9192 153.974 33.5474C153.062 33.1666 152.327 32.6 151.77 31.8474C151.212 31.0948 150.88 30.2758 150.774 29.3903C150.667 28.5049 150.614 26.9554 150.614 24.7419V21.063C150.614 18.9026 150.663 17.3752 150.76 16.481C150.867 15.5778 151.185 14.7544 151.716 14.0106C152.257 13.2669 152.983 12.6958 153.895 12.2974C154.807 11.8989 155.869 11.6997 157.082 11.6997C158.233 11.6997 159.265 11.8901 160.177 12.2708C161.097 12.6427 161.837 13.2049 162.395 13.9575C162.952 14.7101 163.284 15.5291 163.391 16.4146C163.497 17.3 163.55 18.8494 163.55 21.063V24.7419ZM157.959 17.6763C157.959 16.6757 157.901 16.0382 157.786 15.7638C157.68 15.4804 157.454 15.3388 157.109 15.3388C156.816 15.3388 156.591 15.4539 156.431 15.6841C156.281 15.9054 156.206 16.5695 156.206 17.6763V27.7169C156.206 28.9653 156.254 29.7356 156.352 30.0278C156.458 30.32 156.697 30.4661 157.069 30.4661C157.45 30.4661 157.693 30.2979 157.799 29.9614C157.906 29.625 157.959 28.8237 157.959 27.5575V17.6763Z" fill="#171717"/>
<path d="M176.977 12.1513L175.025 21.6606L177.974 33.6536H172.794C172.174 31.5109 171.607 28.9034 171.094 25.831C170.952 27.1856 170.757 28.6244 170.509 30.1474L169.978 33.6536H164.533L166.552 21.6606L164.533 12.1513H169.938C170.036 12.7445 170.231 13.7317 170.523 15.113C170.753 16.1666 170.943 17.1317 171.094 18.0083L172.289 12.1513H176.977Z" fill="#171717"/>
<path d="M191.255 12.1513V33.6536H186.354L183.445 23.8786V33.6536H178.77V12.1513H183.445L186.58 21.8333V12.1513H191.255Z" fill="#171717"/>
</svg>
