<svg width="226" height="45" viewBox="0 0 226 45" fill="none" xmlns="http://www.w3.org/2000/svg">
<g clip-path="url(#clip0_7069_2549)">
<path fill-rule="evenodd" clip-rule="evenodd" d="M43.1303 4.08607C41.5566 5.18647 40.1335 6.48749 38.8982 7.95206C43.9464 7.48338 50.36 8.24867 57.8061 11.9718C65.7576 15.9474 72.1605 16.0818 76.6166 15.2223C76.2122 13.9981 75.7031 12.8215 75.1002 11.703C69.9992 12.241 63.4597 11.5289 55.8384 7.7184C50.9989 5.29861 46.7329 4.30183 43.1303 4.08607ZM72.1204 7.46173C68.0921 2.96091 62.238 0.128418 55.7223 0.128418C53.8088 0.128418 51.9522 0.372736 50.1823 0.831846C52.5795 1.48591 55.126 2.4428 57.8061 3.78291C63.386 6.5728 68.2033 7.47109 72.1204 7.46173ZM77.5693 19.5193C72.1859 20.5824 64.752 20.364 55.8384 15.9072C47.5053 11.7407 40.8728 11.7931 36.3996 12.7872C36.1687 12.8385 35.9433 12.8924 35.7232 12.9485C35.1376 14.2221 34.6701 15.5615 34.3347 16.9524C34.6929 16.8567 35.0631 16.7657 35.4451 16.6808C40.8718 15.4748 48.5394 15.5272 57.8061 20.1606C66.1394 24.3272 72.7719 24.2747 77.2451 23.2807C77.3983 23.2467 77.5494 23.2115 77.6979 23.1752C77.7142 22.8283 77.7223 22.4793 77.7223 22.1284C77.7223 21.2457 77.6704 20.375 77.5693 19.5193ZM76.9796 27.8179C71.6484 28.75 64.431 28.3922 55.8384 24.0961C47.5053 19.9295 40.8728 19.982 36.3996 20.976C35.4067 21.1966 34.5135 21.4653 33.7255 21.749C33.7234 21.8752 33.7223 22.0017 33.7223 22.1284C33.7223 34.2787 43.572 44.1284 55.7223 44.1284C65.9051 44.1284 74.4721 37.2104 76.9796 27.8179Z" fill="#171717"/>
<path d="M100.832 33.1219C99.5826 33.1219 98.421 32.8931 97.3474 32.4355C96.2914 31.9779 95.3762 31.3443 94.6018 30.5347C93.845 29.7075 93.2906 28.7483 92.9386 27.6571L95.9218 26.3635C96.397 27.4899 97.0834 28.3787 97.981 29.0299C98.8786 29.6635 99.8906 29.9803 101.017 29.9803C101.651 29.9803 102.196 29.8835 102.654 29.6899C103.129 29.4787 103.49 29.1971 103.736 28.8451C104 28.4931 104.132 28.0707 104.132 27.5779C104.132 26.9971 103.956 26.5219 103.604 26.1523C103.27 25.7651 102.759 25.4659 102.073 25.2547L98.2978 24.0403C96.7666 23.5651 95.6138 22.8523 94.8394 21.9019C94.065 20.9515 93.6778 19.8339 93.6778 18.5491C93.6778 17.4227 93.9506 16.4283 94.4962 15.5659C95.0594 14.7035 95.8338 14.0347 96.8194 13.5595C97.8226 13.0667 98.9666 12.8203 100.251 12.8203C101.431 12.8203 102.513 13.0315 103.499 13.4539C104.484 13.8587 105.329 14.4307 106.033 15.1699C106.755 15.8915 107.291 16.7451 107.643 17.7307L104.687 19.0507C104.299 18.0651 103.719 17.3083 102.944 16.7803C102.17 16.2347 101.272 15.9619 100.251 15.9619C99.653 15.9619 99.125 16.0675 98.6674 16.2787C98.2098 16.4723 97.849 16.7539 97.585 17.1235C97.3386 17.4755 97.2154 17.8979 97.2154 18.3907C97.2154 18.9363 97.3914 19.4203 97.7434 19.8427C98.0954 20.2475 98.6322 20.5643 99.3538 20.7931L102.971 21.9283C104.537 22.4387 105.707 23.1427 106.482 24.0403C107.274 24.9379 107.67 26.0467 107.67 27.3667C107.67 28.4931 107.379 29.4875 106.799 30.3499C106.218 31.2123 105.417 31.8899 104.396 32.3827C103.375 32.8755 102.187 33.1219 100.832 33.1219Z" fill="#171717"/>
<path d="M110.612 32.8051V12.8203H114.071V21.2683L113.596 20.7667C113.93 19.9043 114.476 19.2531 115.232 18.8131C116.007 18.3555 116.904 18.1267 117.925 18.1267C118.981 18.1267 119.914 18.3555 120.724 18.8131C121.551 19.2707 122.193 19.9131 122.651 20.7403C123.108 21.5499 123.337 22.4915 123.337 23.5651V32.8051H119.879V24.3835C119.879 23.7499 119.756 23.2043 119.509 22.7467C119.263 22.2891 118.92 21.9371 118.48 21.6907C118.057 21.4267 117.556 21.2947 116.975 21.2947C116.412 21.2947 115.91 21.4267 115.47 21.6907C115.03 21.9371 114.687 22.2891 114.44 22.7467C114.194 23.2043 114.071 23.7499 114.071 24.3835V32.8051H110.612Z" fill="#171717"/>
<path d="M130.618 33.1219C129.614 33.1219 128.743 32.9547 128.004 32.6203C127.265 32.2859 126.693 31.8107 126.288 31.1947C125.883 30.5611 125.681 29.8307 125.681 29.0035C125.681 28.2115 125.857 27.5075 126.209 26.8915C126.561 26.2579 127.106 25.7299 127.846 25.3075C128.585 24.8851 129.518 24.5859 130.644 24.4099L135.343 23.6443V26.2843L131.304 26.9707C130.618 27.0939 130.107 27.3139 129.773 27.6307C129.438 27.9475 129.271 28.3611 129.271 28.8715C129.271 29.3643 129.456 29.7603 129.826 30.0595C130.213 30.3411 130.688 30.4819 131.251 30.4819C131.973 30.4819 132.606 30.3323 133.152 30.0331C133.715 29.7163 134.146 29.2851 134.446 28.7395C134.762 28.1939 134.921 27.5955 134.921 26.9443V23.2483C134.921 22.6323 134.674 22.1219 134.182 21.7171C133.706 21.2947 133.073 21.0835 132.281 21.0835C131.542 21.0835 130.882 21.2859 130.301 21.6907C129.738 22.0779 129.324 22.5971 129.06 23.2483L126.235 21.8755C126.517 21.1187 126.957 20.4675 127.555 19.9219C128.171 19.3587 128.893 18.9187 129.72 18.6019C130.547 18.2851 131.445 18.1267 132.413 18.1267C133.592 18.1267 134.63 18.3467 135.528 18.7867C136.426 19.2091 137.121 19.8075 137.614 20.5819C138.124 21.3387 138.379 22.2275 138.379 23.2483V32.8051H135.106V30.3499L135.845 30.2971C135.475 30.9131 135.035 31.4323 134.525 31.8547C134.014 32.2595 133.434 32.5763 132.782 32.8051C132.131 33.0163 131.41 33.1219 130.618 33.1219Z" fill="#171717"/>
<path d="M141.576 32.8051V18.4435H144.823V21.2683L144.559 20.7667C144.893 19.9043 145.439 19.2531 146.196 18.8131C146.97 18.3555 147.868 18.1267 148.889 18.1267C149.945 18.1267 150.877 18.3555 151.687 18.8131C152.514 19.2707 153.157 19.9131 153.614 20.7403C154.072 21.5499 154.301 22.4915 154.301 23.5651V32.8051H150.842V24.3835C150.842 23.7499 150.719 23.2043 150.473 22.7467C150.226 22.2891 149.883 21.9371 149.443 21.6907C149.021 21.4267 148.519 21.2947 147.938 21.2947C147.375 21.2947 146.873 21.4267 146.433 21.6907C145.993 21.9371 145.65 22.2891 145.404 22.7467C145.157 23.2043 145.034 23.7499 145.034 24.3835V32.8051H141.576Z" fill="#171717"/>
<path d="M164.195 38.6131C163.121 38.6131 162.127 38.4371 161.211 38.0851C160.296 37.7331 159.504 37.2403 158.835 36.6067C158.184 35.9907 157.709 35.2603 157.41 34.4155L160.631 33.2011C160.842 33.8699 161.255 34.4067 161.871 34.8115C162.505 35.2339 163.279 35.4451 164.195 35.4451C164.899 35.4451 165.515 35.3131 166.043 35.0491C166.588 34.7851 167.011 34.3979 167.31 33.8875C167.609 33.3947 167.759 32.7963 167.759 32.0923V28.8187L168.419 29.6107C167.926 30.4731 167.266 31.1243 166.439 31.5643C165.611 32.0043 164.67 32.2243 163.614 32.2243C162.276 32.2243 161.079 31.9163 160.023 31.3003C158.967 30.6843 158.14 29.8395 157.542 28.7659C156.943 27.6923 156.644 26.4867 156.644 25.1491C156.644 23.7939 156.943 22.5883 157.542 21.5323C158.14 20.4763 158.959 19.6491 159.997 19.0507C161.035 18.4347 162.215 18.1267 163.535 18.1267C164.608 18.1267 165.55 18.3555 166.359 18.8131C167.187 19.2531 167.873 19.8955 168.419 20.7403L167.943 21.6115V18.4435H171.217V32.0923C171.217 33.3419 170.909 34.4595 170.293 35.4451C169.695 36.4307 168.867 37.2051 167.811 37.7683C166.773 38.3315 165.567 38.6131 164.195 38.6131ZM164.036 29.0299C164.775 29.0299 165.418 28.8715 165.963 28.5547C166.527 28.2203 166.967 27.7627 167.283 27.1819C167.6 26.6011 167.759 25.9323 167.759 25.1755C167.759 24.4363 167.591 23.7763 167.257 23.1955C166.94 22.5971 166.5 22.1307 165.937 21.7963C165.391 21.4619 164.758 21.2947 164.036 21.2947C163.315 21.2947 162.663 21.4619 162.083 21.7963C161.502 22.1307 161.044 22.5971 160.71 23.1955C160.393 23.7763 160.235 24.4363 160.235 25.1755C160.235 25.9147 160.393 26.5747 160.71 27.1555C161.044 27.7363 161.493 28.1939 162.056 28.5283C162.637 28.8627 163.297 29.0299 164.036 29.0299Z" fill="#171717"/>
<path d="M173.153 32.8051L178.169 25.5979L173.127 18.4435H177.192L181.126 24.2515H179.304L183.238 18.4435H187.277L182.261 25.5979L187.251 32.8051H183.212L179.331 27.0235H181.1L177.219 32.8051H173.153Z" fill="#171717"/>
<path d="M189.168 32.8051V18.4435H192.626V32.8051H189.168ZM189.168 16.8331V13.1371H192.626V16.8331H189.168Z" fill="#171717"/>
</g>
<defs>
<clipPath id="clip0_7069_2549">
<rect x="0.674316" y="0.128418" width="225" height="44" rx="8" fill="white"/>
</clipPath>
</defs>
</svg>
