<svg width="116" height="32" viewBox="0 0 116 32" fill="none" xmlns="http://www.w3.org/2000/svg">
<path fill-rule="evenodd" clip-rule="evenodd" d="M6.84219 2.87829C5.69766 3.67858 4.6627 4.62478 3.76426 5.68992C7.4357 5.34906 12.1001 5.90564 17.5155 8.61335C23.2984 11.5047 27.955 11.6025 31.1958 10.9773C30.9017 10.087 30.5315 9.23135 30.093 8.41791C26.3832 8.80919 21.6272 8.29127 16.0845 5.51998C12.5648 3.76014 9.46221 3.03521 6.84219 2.87829ZM27.9259 5.33332C24.9962 2.06 20.7387 0 16 0C14.6084 0 13.2581 0.177686 11.9709 0.511584C13.7143 0.987269 15.5663 1.68319 17.5155 2.65781C21.5736 4.68682 25.0771 5.34013 27.9259 5.33332ZM31.8887 14.1025C27.9735 14.8756 22.567 14.7168 16.0845 11.4755C10.024 8.44527 5.20035 8.48343 1.94712 9.20639C1.7792 9.24367 1.61523 9.28287 1.45522 9.32367C1.0293 10.25 0.689308 11.2241 0.445362 12.2356C0.705909 12.166 0.975145 12.0998 1.25293 12.0381C5.19966 11.161 10.7761 11.1991 17.5155 14.5689C23.5761 17.5991 28.3997 17.561 31.6529 16.838C31.7644 16.8133 31.8742 16.7877 31.9822 16.7613C31.9941 16.509 32 16.2552 32 16C32 15.358 31.9622 14.7248 31.8887 14.1025ZM31.4598 20.1378C27.5826 20.8157 22.3336 20.5555 16.0845 17.431C10.024 14.4008 5.20035 14.439 1.94712 15.1619C1.225 15.3223 0.575392 15.5178 0.002344 15.7241C0.000781601 15.8158 0 15.9078 0 16C0 24.8366 7.16344 32 16 32C23.4057 32 29.6362 26.9687 31.4598 20.1378Z" fill="white"/>
<path d="M48.8072 23.9953C47.8984 23.9953 47.0536 23.8289 46.2728 23.4961C45.5048 23.1633 44.8392 22.7025 44.276 22.1137C43.7256 21.5121 43.3224 20.8145 43.0664 20.0209L45.236 19.0801C45.5816 19.8993 46.0808 20.5457 46.7336 21.0193C47.3864 21.4801 48.1224 21.7105 48.9416 21.7105C49.4024 21.7105 49.7992 21.6401 50.132 21.4993C50.4776 21.3457 50.74 21.1409 50.9192 20.8849C51.1112 20.6289 51.2072 20.3217 51.2072 19.9633C51.2072 19.5409 51.0792 19.1953 50.8232 18.9265C50.58 18.6449 50.2088 18.4273 49.7096 18.2737L46.964 17.3905C45.8504 17.0449 45.012 16.5265 44.4488 15.8353C43.8856 15.1441 43.604 14.3313 43.604 13.3969C43.604 12.5777 43.8024 11.8545 44.1992 11.2273C44.6088 10.6001 45.172 10.1137 45.8888 9.76807C46.6184 9.40967 47.4504 9.23047 48.3848 9.23047C49.2424 9.23047 50.0296 9.38407 50.7464 9.69127C51.4632 9.98567 52.0776 10.4017 52.5896 10.9393C53.1144 11.4641 53.5048 12.0849 53.7608 12.8017L51.6104 13.7617C51.3288 13.0449 50.9064 12.4945 50.3432 12.1105C49.78 11.7137 49.1272 11.5153 48.3848 11.5153C47.9496 11.5153 47.5656 11.5921 47.2328 11.7457C46.9 11.8865 46.6376 12.0913 46.4456 12.3601C46.2664 12.6161 46.1768 12.9233 46.1768 13.2817C46.1768 13.6785 46.3048 14.0305 46.5608 14.3377C46.8168 14.6321 47.2072 14.8625 47.732 15.0289L50.3624 15.8545C51.5016 16.2257 52.3528 16.7377 52.916 17.3905C53.492 18.0433 53.78 18.8497 53.78 19.8097C53.78 20.6289 53.5688 21.3521 53.1464 21.9793C52.724 22.6065 52.1416 23.0993 51.3992 23.4577C50.6568 23.8161 49.7928 23.9953 48.8072 23.9953Z" fill="white"/>
<path d="M55.9201 23.7649V9.23047H58.4353V15.3745L58.0897 15.0097C58.3329 14.3825 58.7297 13.9089 59.2801 13.5889C59.8433 13.2561 60.4961 13.0897 61.2385 13.0897C62.0065 13.0897 62.6849 13.2561 63.2737 13.5889C63.8753 13.9217 64.3425 14.3889 64.6753 14.9905C65.0081 15.5793 65.1745 16.2641 65.1745 17.0449V23.7649H62.6593V17.6401C62.6593 17.1793 62.5697 16.7825 62.3905 16.4497C62.2113 16.1169 61.9617 15.8609 61.6417 15.6817C61.3345 15.4897 60.9697 15.3937 60.5473 15.3937C60.1377 15.3937 59.7729 15.4897 59.4529 15.6817C59.1329 15.8609 58.8833 16.1169 58.7041 16.4497C58.5249 16.7825 58.4353 17.1793 58.4353 17.6401V23.7649H55.9201Z" fill="white"/>
<path d="M70.4693 23.9953C69.7397 23.9953 69.1061 23.8737 68.5685 23.6305C68.0309 23.3873 67.6149 23.0417 67.3205 22.5937C67.0261 22.1329 66.8789 21.6017 66.8789 21.0001C66.8789 20.4241 67.0069 19.9121 67.2629 19.4641C67.5189 19.0033 67.9157 18.6193 68.4533 18.3121C68.9909 18.0049 69.6693 17.7873 70.4885 17.6593L73.9061 17.1025V19.0225L70.9685 19.5217C70.4693 19.6113 70.0981 19.7713 69.8549 20.0017C69.6117 20.2321 69.4901 20.5329 69.4901 20.9041C69.4901 21.2625 69.6245 21.5505 69.8933 21.7681C70.1749 21.9729 70.5205 22.0753 70.9301 22.0753C71.4549 22.0753 71.9157 21.9665 72.3125 21.7489C72.7221 21.5185 73.0357 21.2049 73.2533 20.8081C73.4837 20.4113 73.5989 19.9761 73.5989 19.5025V16.8145C73.5989 16.3665 73.4197 15.9953 73.0613 15.7009C72.7157 15.3937 72.2549 15.2401 71.6789 15.2401C71.1413 15.2401 70.6613 15.3873 70.2389 15.6817C69.8293 15.9633 69.5285 16.3409 69.3365 16.8145L67.2821 15.8161C67.4869 15.2657 67.8069 14.7921 68.2421 14.3953C68.6901 13.9857 69.2149 13.6657 69.8165 13.4353C70.4181 13.2049 71.0709 13.0897 71.7749 13.0897C72.6325 13.0897 73.3877 13.2497 74.0405 13.5697C74.6933 13.8769 75.1989 14.3121 75.5573 14.8753C75.9285 15.4257 76.1141 16.0721 76.1141 16.8145V23.7649H73.7333V21.9793L74.2709 21.9409C74.0021 22.3889 73.6821 22.7665 73.3109 23.0737C72.9397 23.3681 72.5173 23.5985 72.0437 23.7649C71.5701 23.9185 71.0453 23.9953 70.4693 23.9953Z" fill="white"/>
<path d="M78.4388 23.7649V13.3201H80.8004V15.3745L80.6084 15.0097C80.8516 14.3825 81.2484 13.9089 81.7988 13.5889C82.362 13.2561 83.0148 13.0897 83.7572 13.0897C84.5252 13.0897 85.2036 13.2561 85.7924 13.5889C86.394 13.9217 86.8612 14.3889 87.194 14.9905C87.5268 15.5793 87.6932 16.2641 87.6932 17.0449V23.7649H85.178V17.6401C85.178 17.1793 85.0884 16.7825 84.9092 16.4497C84.73 16.1169 84.4804 15.8609 84.1604 15.6817C83.8532 15.4897 83.4884 15.3937 83.066 15.3937C82.6564 15.3937 82.2916 15.4897 81.9716 15.6817C81.6516 15.8609 81.402 16.1169 81.2228 16.4497C81.0436 16.7825 80.954 17.1793 80.954 17.6401V23.7649H78.4388Z" fill="white"/>
<path d="M94.8889 27.9889C94.1081 27.9889 93.3849 27.8609 92.7193 27.6049C92.0537 27.3489 91.4777 26.9905 90.9913 26.5297C90.5177 26.0817 90.1721 25.5505 89.9545 24.9361L92.2969 24.0529C92.4505 24.5393 92.7513 24.9297 93.1993 25.2241C93.6601 25.5313 94.2233 25.6849 94.8889 25.6849C95.4009 25.6849 95.8489 25.5889 96.2329 25.3969C96.6297 25.2049 96.9369 24.9233 97.1545 24.5521C97.3721 24.1937 97.4809 23.7585 97.4809 23.2465V20.8657L97.9609 21.4417C97.6025 22.0689 97.1225 22.5425 96.5209 22.8625C95.9193 23.1825 95.2345 23.3425 94.4665 23.3425C93.4937 23.3425 92.6233 23.1185 91.8553 22.6705C91.0873 22.2225 90.4857 21.6081 90.0505 20.8273C89.6153 20.0465 89.3977 19.1697 89.3977 18.1969C89.3977 17.2113 89.6153 16.3345 90.0505 15.5665C90.4857 14.7985 91.0809 14.1969 91.8361 13.7617C92.5913 13.3137 93.4489 13.0897 94.4089 13.0897C95.1897 13.0897 95.8745 13.2561 96.4633 13.5889C97.0649 13.9089 97.5641 14.3761 97.9609 14.9905L97.6153 15.6241V13.3201H99.9961V23.2465C99.9961 24.1553 99.7721 24.9681 99.3241 25.6849C98.8889 26.4017 98.2873 26.9649 97.5193 27.3745C96.7641 27.7841 95.8873 27.9889 94.8889 27.9889ZM94.7737 21.0193C95.3113 21.0193 95.7785 20.9041 96.1753 20.6737C96.5849 20.4305 96.9049 20.0977 97.1353 19.6753C97.3657 19.2529 97.4809 18.7665 97.4809 18.2161C97.4809 17.6785 97.3593 17.1985 97.1161 16.7761C96.8857 16.3409 96.5657 16.0017 96.1561 15.7585C95.7593 15.5153 95.2985 15.3937 94.7737 15.3937C94.2489 15.3937 93.7753 15.5153 93.3529 15.7585C92.9305 16.0017 92.5977 16.3409 92.3545 16.7761C92.1241 17.1985 92.0089 17.6785 92.0089 18.2161C92.0089 18.7537 92.1241 19.2337 92.3545 19.6561C92.5977 20.0785 92.9241 20.4113 93.3337 20.6545C93.7561 20.8977 94.2361 21.0193 94.7737 21.0193Z" fill="white"/>
<path d="M101.404 23.7649L105.052 18.5233L101.385 13.3201H104.342L107.203 17.5441H105.878L108.739 13.3201H111.676L108.028 18.5233L111.657 23.7649H108.719L105.897 19.5601H107.183L104.361 23.7649H101.404Z" fill="white"/>
<path d="M113.051 23.7649V13.3201H115.567V23.7649H113.051ZM113.051 12.1489V9.46087H115.567V12.1489H113.051Z" fill="white"/>
</svg>
