<svg width="121" height="38" viewBox="0 0 121 38" fill="none" xmlns="http://www.w3.org/2000/svg">
<path d="M49.0552 26.2783L50.3739 23.1346C51.799 24.2261 53.692 24.7938 55.5637 24.7938C56.9463 24.7938 57.8183 24.248 57.8183 23.4184C57.797 21.1042 49.5444 22.9162 49.4806 17.109C49.4593 14.1617 52.0117 11.8912 55.6275 11.8912C57.7758 11.8912 59.924 12.437 61.4554 13.6814L60.2218 16.8907C58.818 15.9738 57.0739 15.3188 55.4148 15.3188C54.2875 15.3188 53.5431 15.8646 53.5431 16.5632C53.5644 18.8337 61.8808 17.5893 61.9659 23.1346C61.9659 26.1473 59.4774 28.265 55.904 28.265C53.2879 28.265 50.8844 27.6319 49.0552 26.2783ZM99.6559 21.9993C98.9966 23.1782 97.7629 23.986 96.3379 23.986C94.2321 23.986 92.5306 22.2395 92.5306 20.0781C92.5306 17.9168 94.2321 16.1702 96.3379 16.1702C97.7629 16.1702 98.9966 16.978 99.6559 18.1569L103.293 16.0829C101.932 13.5941 99.3156 11.8912 96.3379 11.8912C91.935 11.8912 88.3617 15.559 88.3617 20.0781C88.3617 24.5973 91.935 28.265 96.3379 28.265C99.3369 28.265 101.932 26.584 103.293 24.0733L99.6559 21.9993ZM63.7951 5.10156H68.3468V27.9594H63.7951V5.10156ZM105.08 5.10156V27.9594H109.631V21.1042L115.034 27.9594H120.862L113.992 19.8161L120.351 12.2187H114.779L109.631 18.5281V5.10156H105.08ZM81.8744 22.043C81.2151 23.1564 79.8538 23.986 78.3224 23.986C76.2167 23.986 74.5151 22.2395 74.5151 20.0781C74.5151 17.9168 76.2167 16.1702 78.3224 16.1702C79.8538 16.1702 81.2151 17.0435 81.8744 18.1788V22.043ZM81.8744 12.2187V14.0744C81.13 12.7863 79.2795 11.8912 77.344 11.8912C73.3452 11.8912 70.1973 15.5153 70.1973 20.0563C70.1973 24.5973 73.3452 28.265 77.344 28.265C79.2795 28.265 81.13 27.3699 81.8744 26.0818V27.9375H86.4261V12.2187H81.8744Z" fill="white"/>
<path d="M7.95731 23.897C7.95731 26.0511 6.21635 27.792 4.06227 27.792C1.9082 27.792 0.167236 26.0511 0.167236 23.897C0.167236 21.7429 1.9082 20.002 4.06227 20.002H7.95731V23.897ZM9.90483 23.897C9.90483 21.7429 11.6458 20.002 13.7999 20.002C15.9539 20.002 17.6949 21.7429 17.6949 23.897V33.6346C17.6949 35.7887 15.9539 37.5296 13.7999 37.5296C11.6458 37.5296 9.90483 35.7887 9.90483 33.6346V23.897Z" fill="white"/>
<path d="M13.8003 8.25882C11.6462 8.25882 9.90528 6.51786 9.90528 4.36379C9.90528 2.20971 11.6462 0.46875 13.8003 0.46875C15.9544 0.46875 17.6954 2.20971 17.6954 4.36379V8.25882H13.8003ZM13.8003 10.2358C15.9544 10.2358 17.6954 11.9768 17.6954 14.1309C17.6954 16.285 15.9544 18.0259 13.8003 18.0259H4.03322C1.87915 18.0259 0.138184 16.285 0.138184 14.1309C0.138184 11.9768 1.87915 10.2358 4.03322 10.2358H13.8003Z" fill="white"/>
<path d="M29.4097 14.1309C29.4097 11.9768 31.1507 10.2358 33.3047 10.2358C35.4588 10.2358 37.1998 11.9768 37.1998 14.1309C37.1998 16.285 35.4588 18.0259 33.3047 18.0259H29.4097V14.1309ZM27.4622 14.1309C27.4622 16.285 25.7212 18.0259 23.5672 18.0259C21.4131 18.0259 19.6721 16.285 19.6721 14.1309V4.36379C19.6721 2.20971 21.4131 0.46875 23.5672 0.46875C25.7212 0.46875 27.4622 2.20971 27.4622 4.36379V14.1309Z" fill="white"/>
<path d="M23.5672 29.7395C25.7212 29.7395 27.4622 31.4805 27.4622 33.6346C27.4622 35.7887 25.7212 37.5296 23.5672 37.5296C21.4131 37.5296 19.6721 35.7887 19.6721 33.6346V29.7395H23.5672ZM23.5672 27.792C21.4131 27.792 19.6721 26.0511 19.6721 23.897C19.6721 21.7429 21.4131 20.002 23.5672 20.002H33.3343C35.4883 20.002 37.2293 21.7429 37.2293 23.897C37.2293 26.0511 35.4883 27.792 33.3343 27.792H23.5672Z" fill="white"/>
</svg>
