<svg width="226" height="45" viewBox="0 0 226 45" fill="none" xmlns="http://www.w3.org/2000/svg">
<path d="M101.729 29.4071L103.048 26.2633C104.473 27.3549 106.366 27.9226 108.238 27.9226C109.621 27.9226 110.493 27.3768 110.493 26.5472C110.471 24.233 102.219 26.045 102.155 20.2378C102.134 17.2905 104.686 15.02 108.302 15.02C110.45 15.02 112.598 15.5658 114.13 16.8102L112.896 20.0195C111.492 19.1025 109.748 18.4476 108.089 18.4476C106.962 18.4476 106.217 18.9934 106.217 19.692C106.239 21.9625 114.555 20.7181 114.64 26.2633C114.64 29.2761 112.152 31.3938 108.578 31.3938C105.962 31.3938 103.559 30.7607 101.729 29.4071ZM152.33 25.1281C151.671 26.307 150.437 27.1148 149.012 27.1148C146.906 27.1148 145.205 25.3682 145.205 23.2069C145.205 21.0456 146.906 19.299 149.012 19.299C150.437 19.299 151.671 20.1068 152.33 21.2857L155.967 19.2117C154.606 16.7229 151.99 15.02 149.012 15.02C144.609 15.02 141.036 18.6877 141.036 23.2069C141.036 27.7261 144.609 31.3938 149.012 31.3938C152.011 31.3938 154.606 29.7128 155.967 27.2021L152.33 25.1281ZM116.469 8.23035H121.021V31.0882H116.469V8.23035ZM157.754 8.23035V31.0882H162.306V24.233L167.708 31.0882H173.536L166.666 22.9449L173.026 15.3475H167.453L162.306 21.6569V8.23035H157.754ZM134.549 25.1718C133.889 26.2852 132.528 27.1148 130.997 27.1148C128.891 27.1148 127.189 25.3682 127.189 23.2069C127.189 21.0456 128.891 19.299 130.997 19.299C132.528 19.299 133.889 20.1723 134.549 21.3075V25.1718ZM134.549 15.3475V17.2032C133.804 15.9151 131.954 15.02 130.018 15.02C126.02 15.02 122.872 18.6441 122.872 23.1851C122.872 27.7261 126.02 31.3938 130.018 31.3938C131.954 31.3938 133.804 30.4987 134.549 29.2106V31.0663H139.1V15.3475H134.549Z" fill="#171717"/>
<path d="M60.6317 27.0265C60.6317 29.1806 58.8908 30.9215 56.7367 30.9215C54.5826 30.9215 52.8416 29.1806 52.8416 27.0265C52.8416 24.8724 54.5826 23.1315 56.7367 23.1315H60.6317V27.0265ZM62.5792 27.0265C62.5792 24.8724 64.3202 23.1315 66.4743 23.1315C68.6283 23.1315 70.3693 24.8724 70.3693 27.0265V36.7641C70.3693 38.9182 68.6283 40.6591 66.4743 40.6591C64.3202 40.6591 62.5792 38.9182 62.5792 36.7641V27.0265Z" fill="#171717"/>
<path d="M66.4746 11.3877C64.3206 11.3877 62.5796 9.64676 62.5796 7.49269C62.5796 5.33862 64.3206 3.59766 66.4746 3.59766C68.6287 3.59766 70.3697 5.33862 70.3697 7.49269V11.3877H66.4746ZM66.4746 13.3648C68.6287 13.3648 70.3697 15.1057 70.3697 17.2598C70.3697 19.4139 68.6287 21.1548 66.4746 21.1548H56.7075C54.5535 21.1548 52.8125 19.4139 52.8125 17.2598C52.8125 15.1057 54.5535 13.3648 56.7075 13.3648H66.4746Z" fill="#171717"/>
<path d="M82.084 17.2598C82.084 15.1057 83.8249 13.3648 85.979 13.3648C88.1331 13.3648 89.874 15.1057 89.874 17.2598C89.874 19.4139 88.1331 21.1548 85.979 21.1548H82.084V17.2598ZM80.1364 17.2598C80.1364 19.4139 78.3955 21.1548 76.2414 21.1548C74.0873 21.1548 72.3464 19.4139 72.3464 17.2598V7.49269C72.3464 5.33862 74.0873 3.59766 76.2414 3.59766C78.3955 3.59766 80.1364 5.33862 80.1364 7.49269V17.2598Z" fill="#171717"/>
<path d="M76.2414 32.8691C78.3955 32.8691 80.1364 34.61 80.1364 36.7641C80.1364 38.9182 78.3955 40.6591 76.2414 40.6591C74.0873 40.6591 72.3464 38.9182 72.3464 36.7641V32.8691H76.2414ZM76.2414 30.9215C74.0873 30.9215 72.3464 29.1806 72.3464 27.0265C72.3464 24.8724 74.0873 23.1315 76.2414 23.1315H86.0085C88.1626 23.1315 89.9035 24.8724 89.9035 27.0265C89.9035 29.1806 88.1626 30.9215 86.0085 30.9215H76.2414Z" fill="#171717"/>
</svg>
