<svg width="226" height="45" viewBox="0 0 226 45" fill="none" xmlns="http://www.w3.org/2000/svg">
<g clip-path="url(#clip0_7069_2553)">
<path d="M65.0502 1.06885C53.6267 1.06885 44.3657 10.4479 44.3657 22.0174C44.3657 33.5874 53.6267 42.9657 65.0502 42.9657C76.4749 42.9657 85.7349 33.5874 85.7349 22.0174C85.7349 10.4487 76.4749 1.06985 65.0499 1.06985L65.0502 1.06885ZM74.5359 31.2827C74.4477 31.4292 74.3317 31.5566 74.1948 31.6576C74.0578 31.7587 73.9026 31.8314 73.7378 31.8716C73.5731 31.9118 73.4022 31.9187 73.2348 31.8919C73.0674 31.8651 72.9069 31.8051 72.7625 31.7155C67.906 28.7111 61.7923 28.0307 54.5922 29.6967C54.2588 29.7735 53.909 29.7131 53.6196 29.5287C53.3301 29.3444 53.1248 29.0512 53.0487 28.7136C53.0108 28.5464 53.0059 28.3733 53.0341 28.2042C53.0624 28.0351 53.1233 27.8733 53.2134 27.7281C53.3034 27.5829 53.4209 27.4571 53.5591 27.3579C53.6972 27.2587 53.8533 27.1881 54.0185 27.1501C61.8977 25.327 68.6564 26.112 74.1086 29.4866C74.7162 29.8643 74.9089 30.6673 74.5359 31.2827ZM77.0677 25.5786C76.6008 26.3471 75.6079 26.5898 74.8496 26.117C69.2897 22.6558 60.8144 21.6534 54.238 23.6752C53.3851 23.9361 52.4843 23.4493 52.2255 22.587C52.102 22.1725 52.1458 21.7252 52.3474 21.3433C52.549 20.9615 52.8919 20.6762 53.3009 20.55C60.8129 18.2416 70.1517 19.3598 76.5366 23.3335C77.2949 23.8063 77.5345 24.8119 77.0677 25.5789V25.5786ZM77.285 19.6389C70.6185 15.6287 59.6197 15.2599 53.2547 17.2164C52.2326 17.5304 51.1518 16.946 50.842 15.9109C50.6931 15.4135 50.7453 14.8767 50.9871 14.4183C51.229 13.9599 51.6406 13.6176 52.1316 13.4666C59.4381 11.2202 71.5843 11.6542 79.2595 16.2688C79.4783 16.3999 79.6694 16.5734 79.8218 16.7793C79.9743 16.9853 80.0851 17.2197 80.148 17.4691C80.2108 17.7185 80.2245 17.978 80.1882 18.2328C80.1519 18.4875 80.0663 18.7325 79.9363 18.9537C79.3929 19.8848 78.2024 20.1918 77.286 19.6389H77.285ZM100.641 20.4074C97.0697 19.5449 96.4349 18.9395 96.4349 17.6674C96.4349 16.4657 97.5513 15.6569 99.2136 15.6569C100.824 15.6569 102.42 16.2711 104.094 17.5354C104.144 17.5736 104.208 17.5889 104.27 17.5789C104.301 17.5744 104.331 17.5635 104.357 17.5469C104.384 17.5303 104.407 17.5083 104.425 17.4823L106.169 14.9928C106.204 14.9434 106.218 14.8826 106.21 14.8228C106.202 14.7629 106.171 14.7085 106.125 14.6706C104.131 13.0513 101.889 12.2641 99.2655 12.2641C95.4098 12.2641 92.7151 14.6078 92.7151 17.9611C92.7151 21.5571 95.0393 22.8304 99.0555 23.8133C102.472 24.6105 103.05 25.2784 103.05 26.4722C103.05 27.7955 101.884 28.6185 100.006 28.6185C97.9218 28.6185 96.22 27.9056 94.3181 26.2395C94.2707 26.1989 94.2097 26.1783 94.1477 26.182C94.0835 26.187 94.0266 26.217 93.9871 26.2646L92.0309 28.621C91.9494 28.7211 91.9593 28.8662 92.0531 28.9512C94.2662 30.9525 96.9882 32.0081 99.9275 32.0081C104.082 32.0081 106.767 29.7092 106.767 26.1495C106.774 23.1459 104.998 21.4823 100.649 20.4107L100.641 20.4074ZM116.168 16.8402C114.367 16.8402 112.89 17.5586 111.67 19.0308V17.3738C111.67 17.3111 111.646 17.2509 111.602 17.2064C111.559 17.1619 111.499 17.1367 111.438 17.1364H108.239C108.111 17.1364 108.007 17.2429 108.007 17.3738V35.7855C108.007 35.9156 108.111 36.0231 108.239 36.0231H111.438C111.566 36.0231 111.67 35.9156 111.67 35.7855V29.9744C112.89 31.3577 114.367 32.0357 116.168 32.0357C119.514 32.0357 122.903 29.4265 122.903 24.4387C122.908 19.4498 119.519 16.8399 116.17 16.8399L116.168 16.8402ZM119.184 24.4387C119.184 26.9775 117.64 28.7511 115.427 28.7511C113.241 28.7511 111.591 26.8974 111.591 24.4387C111.591 21.9796 113.241 20.1265 115.427 20.1265C117.603 20.1262 119.184 21.9394 119.184 24.4384V24.4387ZM131.585 16.8402C127.275 16.8402 123.899 20.2013 123.899 24.493C123.899 28.7386 127.253 32.0632 131.533 32.0632C135.858 32.0632 139.245 28.7136 139.245 24.4387C139.245 20.1783 135.881 16.8407 131.585 16.8407V16.8402ZM131.585 28.7761C129.293 28.7761 127.564 26.91 127.564 24.4374C127.564 21.9536 129.234 20.1512 131.533 20.1512C133.84 20.1512 135.579 22.0167 135.579 24.4917C135.579 26.975 133.9 28.7761 131.585 28.7761ZM148.448 17.1364H144.928V13.4926C144.928 13.4616 144.922 13.4308 144.911 13.4021C144.899 13.3734 144.882 13.3473 144.861 13.3253C144.839 13.3033 144.813 13.2858 144.785 13.2738C144.757 13.2618 144.727 13.2556 144.696 13.2554H141.497C141.369 13.2554 141.263 13.362 141.263 13.4926V17.1364H139.726C139.598 17.1364 139.494 17.2429 139.494 17.3738V20.1572C139.494 20.2878 139.598 20.3946 139.726 20.3946H141.263V27.5979C141.263 30.5072 142.693 31.9831 145.516 31.9831C146.662 31.9831 147.613 31.743 148.51 31.2276C148.584 31.1876 148.628 31.1076 148.628 31.0225V28.3709C148.628 28.2908 148.586 28.2133 148.517 28.1707C148.483 28.149 148.445 28.1366 148.405 28.1348C148.365 28.133 148.325 28.142 148.29 28.1607C147.675 28.4734 147.08 28.6185 146.413 28.6185C145.388 28.6185 144.928 28.1457 144.928 27.0901V20.3959H148.448C148.576 20.3959 148.68 20.2893 148.68 20.1585V17.3753C148.681 17.3442 148.676 17.3133 148.665 17.2843C148.654 17.2553 148.637 17.229 148.615 17.2068C148.594 17.1846 148.568 17.167 148.54 17.1552C148.512 17.1433 148.481 17.1374 148.45 17.1379L148.448 17.1364ZM160.709 17.1506V16.7031C160.709 15.3865 161.208 14.7994 162.324 14.7994C162.991 14.7994 163.527 14.9335 164.127 15.1361C164.202 15.1596 164.278 15.1479 164.337 15.1031C164.368 15.0811 164.392 15.0522 164.409 15.0186C164.425 14.9851 164.434 14.948 164.434 14.9105V12.1813C164.434 12.1303 164.419 12.0805 164.389 12.0395C164.359 11.9985 164.317 11.9684 164.268 11.9539C163.636 11.763 162.826 11.5671 161.611 11.5671C158.659 11.5671 157.095 13.2517 157.095 16.4369V17.1224H155.559C155.431 17.1224 155.324 17.2289 155.324 17.3595V20.1572C155.324 20.2878 155.431 20.3946 155.559 20.3946H157.095V31.5028C157.095 31.6354 157.202 31.7405 157.33 31.7405H160.526C160.657 31.7405 160.761 31.6354 160.761 31.5028V20.3954H163.747L168.322 31.5028C167.803 32.6685 167.292 32.9012 166.595 32.9012C166.032 32.9012 165.437 32.7311 164.831 32.3934C164.774 32.3641 164.708 32.3578 164.646 32.3759C164.584 32.3984 164.533 32.4434 164.508 32.5034L163.424 34.9124C163.372 35.0275 163.416 35.1601 163.525 35.2201C164.656 35.8405 165.676 36.1057 166.938 36.1057C169.3 36.1057 170.606 34.99 171.755 31.9931L177.302 17.4748C177.317 17.4389 177.322 17.3999 177.318 17.3614C177.314 17.3229 177.3 17.2861 177.278 17.2544C177.257 17.2227 177.229 17.1967 177.195 17.1787C177.162 17.1607 177.125 17.1513 177.088 17.1514H173.758C173.657 17.1514 173.568 17.2157 173.536 17.3105L170.125 27.1751L166.39 17.304C166.373 17.2592 166.344 17.2207 166.305 17.1934C166.266 17.1662 166.22 17.1515 166.173 17.1514H160.709V17.1506ZM153.6 17.1364H150.402C150.273 17.1364 150.167 17.2429 150.167 17.3738V31.5028C150.167 31.6354 150.273 31.7405 150.402 31.7405H153.6C153.729 31.7405 153.835 31.6354 153.835 31.5028V17.3748C153.835 17.3435 153.829 17.3126 153.817 17.2838C153.806 17.2549 153.788 17.2287 153.766 17.2067C153.745 17.1846 153.719 17.1671 153.69 17.1552C153.662 17.1433 153.631 17.1373 153.6 17.1374V17.1364ZM152.02 10.7026C150.752 10.7026 149.725 11.7413 149.725 13.0243C149.725 13.3295 149.784 13.6317 149.9 13.9136C150.015 14.1955 150.184 14.4517 150.397 14.6675C150.61 14.8833 150.863 15.0544 151.142 15.1712C151.42 15.288 151.718 15.348 152.02 15.348C153.287 15.348 154.312 14.3081 154.312 13.0243C154.312 11.7415 153.284 10.7026 152.02 10.7026ZM180.034 21.6794C178.77 21.6794 177.784 20.6501 177.784 19.4C177.784 18.15 178.782 17.1088 180.047 17.1088C181.311 17.1088 182.297 18.138 182.297 19.387C182.297 20.637 181.299 21.6794 180.034 21.6794ZM180.047 17.3355C178.893 17.3355 178.021 18.2636 178.021 19.4C178.021 20.536 178.888 21.4516 180.034 21.4516C181.188 21.4516 182.06 20.5242 182.06 19.387C182.06 18.2511 181.193 17.3355 180.047 17.3355ZM180.546 19.6214L181.183 20.524H180.644L180.071 19.696H179.58V20.524H179.13V18.1315H180.182C180.733 18.1315 181.094 18.4159 181.094 18.8947C181.096 19.287 180.872 19.5266 180.548 19.6214H180.546ZM180.165 18.542H179.58V19.2987H180.165C180.457 19.2987 180.632 19.1539 180.632 18.92C180.632 18.6738 180.457 18.542 180.165 18.542Z" fill="#171717"/>
</g>
<defs>
<clipPath id="clip0_7069_2553">
<rect width="143" height="42" fill="white" transform="translate(41.6743 1.12842)"/>
</clipPath>
</defs>
</svg>
