<svg width="109" height="32" viewBox="0 0 109 32" fill="none" xmlns="http://www.w3.org/2000/svg">
<g clip-path="url(#clip0_7713_1418)">
<path d="M17.8104 -0.0449219C9.10677 -0.0449219 2.05078 7.10106 2.05078 15.9159C2.05078 24.7311 9.10677 31.8765 17.8104 31.8765C26.5149 31.8765 33.5701 24.7311 33.5701 15.9159C33.5701 7.10163 26.5149 -0.0441595 17.8102 -0.0441595L17.8104 -0.0449219ZM25.0376 22.9751C24.9704 23.0868 24.882 23.1838 24.7777 23.2608C24.6733 23.3378 24.555 23.3932 24.4295 23.4238C24.304 23.4545 24.1738 23.4597 24.0463 23.4393C23.9188 23.4189 23.7965 23.3732 23.6864 23.3049C19.9862 21.0158 15.3281 20.4974 9.84241 21.7668C9.58839 21.8253 9.32184 21.7792 9.10132 21.6388C8.88081 21.4983 8.72437 21.2749 8.66641 21.0177C8.63754 20.8904 8.63375 20.7585 8.65528 20.6297C8.6768 20.5008 8.7232 20.3775 8.79183 20.2669C8.86046 20.1562 8.94997 20.0604 9.05522 19.9848C9.16048 19.9093 9.27943 19.8555 9.40524 19.8265C15.4085 18.4375 20.5579 19.0355 24.712 21.6067C25.175 21.8945 25.3218 22.5063 25.0376 22.9751ZM26.9666 18.6292C26.6109 19.2147 25.8544 19.3996 25.2766 19.0394C21.0405 16.4023 14.5831 15.6386 9.57254 17.179C8.92272 17.3778 8.23639 17.0069 8.03917 16.3499C7.94506 16.034 7.97847 15.6933 8.13207 15.4023C8.28568 15.1114 8.54693 14.894 8.85855 14.7979C14.582 13.039 21.6972 13.891 26.5619 16.9186C27.1397 17.2788 27.3222 18.045 26.9666 18.6294V18.6292ZM27.1322 14.1037C22.0529 11.0483 13.6728 10.7673 8.82336 12.258C8.04463 12.4972 7.22111 12.052 6.98512 11.2633C6.87164 10.8844 6.9114 10.4753 7.09566 10.1261C7.27991 9.77685 7.59357 9.51603 7.96766 9.40097C13.5345 7.68942 22.7887 8.02011 28.6366 11.536C28.8032 11.6359 28.9488 11.768 29.0649 11.925C29.1811 12.0819 29.2655 12.2605 29.3134 12.4505C29.3613 12.6405 29.3717 12.8382 29.3441 13.0323C29.3164 13.2265 29.2512 13.4131 29.1522 13.5817C28.7382 14.2911 27.8311 14.5249 27.1329 14.1037H27.1322ZM44.9274 14.6892C42.2062 14.032 41.7225 13.5708 41.7225 12.6016C41.7225 11.686 42.5731 11.0698 43.8397 11.0698C45.0667 11.0698 46.2824 11.5377 47.5583 12.501C47.5959 12.5302 47.6449 12.5418 47.6919 12.5342C47.7156 12.5307 47.7383 12.5224 47.7587 12.5098C47.7791 12.4971 47.7967 12.4804 47.8105 12.4606L49.1391 10.5638C49.1653 10.5262 49.1764 10.4799 49.1701 10.4343C49.1638 10.3886 49.1406 10.3472 49.1052 10.3183C47.5865 9.08458 45.8778 8.48478 43.8792 8.48478C40.9415 8.48478 38.8884 10.2705 38.8884 12.8254C38.8884 15.5652 40.6593 16.5353 43.7192 17.2842C46.3219 17.8916 46.7622 18.4005 46.7622 19.31C46.7622 20.3183 45.874 20.9453 44.4437 20.9453C42.8554 20.9453 41.5588 20.4021 40.1097 19.1327C40.0736 19.1018 40.0271 19.0861 39.9799 19.0889C39.931 19.0927 39.8877 19.1156 39.8576 19.1518L38.3671 20.9472C38.305 21.0235 38.3125 21.134 38.384 21.1988C40.0702 22.7236 42.1441 23.5279 44.3835 23.5279C47.5489 23.5279 49.5945 21.7763 49.5945 19.0641C49.6001 16.7757 48.2471 15.5082 44.933 14.6917L44.9274 14.6892ZM56.757 11.9713C55.3851 11.9713 54.2597 12.5187 53.3301 13.6404V12.3779C53.3303 12.3301 53.3118 12.2843 53.2786 12.2504C53.2454 12.2164 53.2003 12.1972 53.1532 12.197H50.7161C50.6183 12.197 50.5392 12.2782 50.5392 12.3779V26.4059C50.5392 26.505 50.6183 26.5869 50.7161 26.5869H53.1532C53.251 26.5869 53.3301 26.505 53.3301 26.4059V21.9783C54.2597 23.0323 55.3851 23.5488 56.757 23.5488C59.307 23.5488 61.889 21.5609 61.889 17.7607C61.8927 13.9596 59.3107 11.9711 56.7589 11.9711L56.757 11.9713ZM59.0548 17.7607C59.0548 19.695 57.8786 21.0463 56.1924 21.0463C54.527 21.0463 53.2699 19.634 53.2699 17.7607C53.2699 15.8871 54.527 14.4752 56.1924 14.4752C57.8504 14.475 59.0548 15.8564 59.0548 17.7605V17.7607ZM68.5038 11.9713C65.2199 11.9713 62.6474 14.5322 62.6474 17.802C62.6474 21.0368 65.203 23.5698 68.4643 23.5698C71.7595 23.5698 74.3396 21.0177 74.3396 17.7607C74.3396 14.5146 71.7764 11.9717 68.5038 11.9717V11.9713ZM68.5038 21.0654C66.7574 21.0654 65.4401 19.6435 65.4401 17.7597C65.4401 15.8673 66.7123 14.494 68.4643 14.494C70.222 14.494 71.5469 15.9153 71.5469 17.8011C71.5469 19.6931 70.2672 21.0654 68.5038 21.0654ZM81.3515 12.197H78.6698V9.42079C78.6699 9.39716 78.6654 9.37374 78.6566 9.35188C78.6478 9.33001 78.6348 9.31012 78.6183 9.29334C78.6019 9.27656 78.5824 9.26323 78.5609 9.25409C78.5394 9.24496 78.5163 9.2402 78.4929 9.2401H76.0559C75.958 9.2401 75.8771 9.3213 75.8771 9.42079V12.197H74.7066C74.6087 12.197 74.5297 12.2782 74.5297 12.3779V14.4986C74.5297 14.5981 74.6087 14.6795 74.7066 14.6795H75.8771V20.1677C75.8771 22.3843 76.9667 23.5088 79.1177 23.5088C79.9909 23.5088 80.7155 23.3258 81.3986 22.9332C81.455 22.9027 81.4889 22.8417 81.4889 22.7769V20.7566C81.4889 20.6956 81.4569 20.6365 81.4042 20.6041C81.3786 20.5875 81.3491 20.5781 81.3187 20.5768C81.2883 20.5754 81.2581 20.5822 81.2311 20.5965C80.7625 20.8348 80.309 20.9453 79.8009 20.9453C79.0199 20.9453 78.6698 20.5851 78.6698 19.7808V14.6804H81.3515C81.4494 14.6804 81.5284 14.5993 81.5284 14.4996V12.379C81.5292 12.3554 81.5253 12.3318 81.5168 12.3097C81.5083 12.2876 81.4955 12.2675 81.4792 12.2506C81.4628 12.2337 81.4432 12.2203 81.4216 12.2113C81.4 12.2023 81.3768 12.1978 81.3534 12.1981L81.3515 12.197ZM90.6933 12.2079V11.8669C90.6933 10.8638 91.0734 10.4165 91.924 10.4165C92.4322 10.4165 92.8405 10.5186 93.2978 10.673C93.3543 10.6909 93.4126 10.682 93.4578 10.6478C93.4807 10.6311 93.4993 10.609 93.5121 10.5835C93.5249 10.558 93.5314 10.5297 93.5312 10.5011V8.42169C93.5316 8.38285 93.5196 8.34493 93.4968 8.31367C93.4741 8.2824 93.4419 8.2595 93.4051 8.24844C92.9233 8.10301 92.3061 7.95378 91.3802 7.95378C89.1313 7.95378 87.9401 9.23725 87.9401 11.6641V12.1863H86.7695C86.6717 12.1863 86.5907 12.2675 86.5907 12.367V14.4986C86.5907 14.5981 86.6717 14.6795 86.7695 14.6795H87.9401V23.1429C87.9401 23.2439 88.021 23.3239 88.1189 23.3239H90.554C90.6538 23.3239 90.7328 23.2439 90.7328 23.1429V14.6801H93.008L96.4933 23.1429C96.0981 24.031 95.7085 24.2083 95.1778 24.2083C94.7488 24.2083 94.2952 24.0787 93.8342 23.8214C93.7905 23.7991 93.7401 23.7943 93.693 23.808C93.646 23.8252 93.6065 23.8595 93.5877 23.9052L92.7615 25.7407C92.722 25.8284 92.7559 25.9294 92.8387 25.9751C93.7006 26.4478 94.4778 26.6498 95.4394 26.6498C97.2385 26.6498 98.2341 25.7998 99.1091 23.5164L103.336 12.4549C103.347 12.4275 103.351 12.3978 103.348 12.3685C103.344 12.3391 103.334 12.3111 103.317 12.287C103.301 12.2628 103.28 12.243 103.254 12.2293C103.229 12.2156 103.201 12.2084 103.172 12.2084H100.635C100.558 12.2084 100.49 12.2574 100.466 12.3297L97.8671 19.8456L95.0217 12.3247C95.0089 12.2906 94.9863 12.2612 94.9567 12.2405C94.9271 12.2197 94.892 12.2085 94.856 12.2084H90.6933V12.2079ZM85.2772 12.197H82.8401C82.7423 12.197 82.6613 12.2782 82.6613 12.3779V23.1429C82.6613 23.2439 82.7423 23.3239 82.8401 23.3239H85.2772C85.375 23.3239 85.456 23.2439 85.456 23.1429V12.3786C85.456 12.3548 85.4514 12.3313 85.4425 12.3093C85.4335 12.2873 85.4203 12.2674 85.4037 12.2506C85.3871 12.2337 85.3674 12.2204 85.3456 12.2114C85.3239 12.2023 85.3007 12.1977 85.2772 12.1978V12.197ZM84.0728 7.29508C83.1074 7.29508 82.3245 8.08643 82.3245 9.064C82.3245 9.29651 82.3697 9.52674 82.4576 9.74156C82.5454 9.95637 82.6742 10.1515 82.8366 10.316C82.9989 10.4804 83.1916 10.6108 83.4037 10.6997C83.6159 10.7887 83.8432 10.8345 84.0728 10.8344C85.0382 10.8344 85.8192 10.0421 85.8192 9.064C85.8192 8.08662 85.0363 7.29508 84.0728 7.29508ZM105.417 15.6584C104.454 15.6584 103.703 14.8741 103.703 13.9217C103.703 12.9693 104.463 12.176 105.427 12.176C106.39 12.176 107.141 12.9601 107.141 13.9118C107.141 14.8642 106.381 15.6584 105.417 15.6584ZM105.427 12.3487C104.548 12.3487 103.884 13.0558 103.884 13.9217C103.884 14.7872 104.544 15.4848 105.417 15.4848C106.296 15.4848 106.96 14.7782 106.96 13.9118C106.96 13.0463 106.3 12.3487 105.427 12.3487ZM105.807 14.0904L106.292 14.778H105.882L105.445 14.1472H105.071V14.778H104.728V12.9552H105.53C105.95 12.9552 106.225 13.1719 106.225 13.5367C106.226 13.8355 106.055 14.0181 105.809 14.0904H105.807ZM105.517 13.2679H105.071V13.8445H105.517C105.739 13.8445 105.873 13.7341 105.873 13.5559C105.873 13.3684 105.739 13.2679 105.517 13.2679Z" fill="white"/>
</g>
<defs>
<clipPath id="clip0_7713_1418">
<rect width="108.952" height="32" fill="white"/>
</clipPath>
</defs>
</svg>
