<svg width="139" height="33" viewBox="0 0 139 33" fill="none" xmlns="http://www.w3.org/2000/svg">
<path d="M14.6849 5.32745V0.669922H0V32.6699H14.6849V28.0124C11.6767 28.0124 8.79167 26.8173 6.66459 24.6902C4.53747 22.5631 3.34246 19.6781 3.34246 16.6699C3.34246 13.6617 4.53747 10.7767 6.66459 8.64959C8.79167 6.52247 11.6767 5.32745 14.6849 5.32745Z" fill="white"/>
<path d="M14.6826 5.32812V28.0131C17.6908 28.0131 20.5759 26.818 22.703 24.6909C24.8301 22.5637 26.0251 19.6788 26.0251 16.6706C26.0251 13.6624 24.8301 10.7773 22.703 8.65026C20.5759 6.52314 17.6908 5.32812 14.6826 5.32812Z" fill="white"/>
<path d="M136.054 12.0016C137.385 12.0016 138.464 10.9222 138.464 9.59065C138.464 8.25914 137.385 7.17969 136.054 7.17969C134.722 7.17969 133.643 8.25914 133.643 9.59065C133.643 10.9222 134.722 12.0016 136.054 12.0016Z" fill="white"/>
<path d="M41.233 21.533L45.638 6.73849H49.9274L43.4163 25.4371H40.5909L41.233 21.533ZM37.1748 6.73849L41.567 21.533L42.2348 25.4371H39.3837L32.9111 6.73849H37.1748Z" fill="white"/>
<path d="M58.3521 22.3036V16.1135C58.3521 15.6683 58.2793 15.2873 58.1337 14.9705C57.9882 14.6452 57.7613 14.3926 57.4531 14.2128C57.1534 14.033 56.7639 13.9431 56.2844 13.9431C55.8735 13.9431 55.5181 14.0159 55.2185 14.1614C54.9188 14.2984 54.6877 14.4996 54.525 14.765C54.3623 15.0219 54.281 15.3258 54.281 15.6768H50.5824C50.5824 15.0861 50.7193 14.5253 50.9933 13.9945C51.2673 13.4637 51.6654 12.9971 52.1877 12.5947C52.7099 12.1837 53.3306 11.8626 54.0498 11.6315C54.7776 11.4003 55.5909 11.2847 56.4899 11.2847C57.5687 11.2847 58.5276 11.4645 59.3666 11.8241C60.2056 12.1837 60.8649 12.7231 61.3443 13.4423C61.8324 14.1614 62.0764 15.0604 62.0764 16.1392V22.0852C62.0764 22.8472 62.1235 23.4722 62.2176 23.9602C62.3118 24.4397 62.4488 24.8592 62.6286 25.2188V25.4371H58.8914C58.7116 25.0604 58.5747 24.5895 58.4805 24.0244C58.3949 23.4508 58.3521 22.8772 58.3521 22.3036ZM58.8401 16.9739L58.8657 19.0673H56.7981C56.3101 19.0673 55.8863 19.1229 55.5267 19.2342C55.1671 19.3455 54.8717 19.5039 54.6406 19.7094C54.4094 19.9063 54.2382 20.1375 54.1269 20.4029C54.0241 20.6683 53.9728 20.9594 53.9728 21.2762C53.9728 21.5929 54.0455 21.8798 54.1911 22.1366C54.3366 22.3849 54.5464 22.5818 54.8204 22.7274C55.0943 22.8643 55.4154 22.9328 55.7836 22.9328C56.3401 22.9328 56.8238 22.8215 57.2348 22.5989C57.6457 22.3763 57.9625 22.1024 58.1851 21.777C58.4163 21.4517 58.5361 21.1435 58.5447 20.8524L59.5207 22.4191C59.3837 22.7702 59.1954 23.134 58.9556 23.5107C58.7245 23.8875 58.4291 24.2428 58.0695 24.5767C57.7099 24.902 57.2776 25.1717 56.7724 25.3857C56.2673 25.5912 55.668 25.694 54.9745 25.694C54.0926 25.694 53.2921 25.5185 52.5729 25.1674C51.8623 24.8078 51.2973 24.3155 50.8777 23.6905C50.4668 23.057 50.2613 22.3378 50.2613 21.533C50.2613 20.8053 50.3983 20.1589 50.6723 19.5938C50.9462 19.0287 51.3486 18.5536 51.8794 18.1683C52.4188 17.7744 53.0909 17.4791 53.8957 17.2822C54.7005 17.0767 55.6337 16.9739 56.6954 16.9739H58.8401Z" fill="white"/>
<path d="M68.549 14.5082V25.4371H64.8503V11.5416H68.3178L68.549 14.5082ZM68.0096 18.0013H67.0079C67.0079 16.9739 67.1406 16.0493 67.406 15.2274C67.6714 14.3969 68.0438 13.6905 68.5233 13.1084C69.0027 12.5176 69.5721 12.0681 70.2313 11.7599C70.8991 11.4431 71.644 11.2847 72.4659 11.2847C73.1166 11.2847 73.7116 11.3789 74.251 11.5673C74.7904 11.7556 75.2527 12.0553 75.638 12.4662C76.0318 12.8772 76.3315 13.4209 76.537 14.0972C76.751 14.7736 76.858 15.5998 76.858 16.5758V25.4371H73.1337V16.563C73.1337 15.9465 73.0481 15.4671 72.8769 15.1246C72.7056 14.7822 72.4531 14.5424 72.1192 14.4054C71.7938 14.2599 71.3914 14.1871 70.912 14.1871C70.4154 14.1871 69.983 14.2856 69.6149 14.4825C69.2553 14.6794 68.9556 14.9534 68.7159 15.3044C68.4848 15.6469 68.3092 16.0493 68.1894 16.5116C68.0695 16.9739 68.0096 17.4705 68.0096 18.0013Z" fill="white"/>
<path d="M84.3837 25.4371H80.6594V10.3087C80.6594 9.25562 80.8649 8.36949 81.2758 7.65031C81.6954 6.92257 82.2818 6.37463 83.0353 6.00647C83.7973 5.62976 84.7005 5.44141 85.745 5.44141C86.0875 5.44141 86.4171 5.46709 86.7339 5.51846C87.0507 5.56127 87.3589 5.61692 87.6586 5.68541L87.62 8.47223C87.4574 8.42942 87.2861 8.39945 87.1063 8.38233C86.9265 8.36521 86.7168 8.35664 86.477 8.35664C86.0318 8.35664 85.6508 8.4337 85.3341 8.58781C85.0258 8.73336 84.7904 8.95168 84.6277 9.24277C84.4651 9.53387 84.3837 9.88918 84.3837 10.3087V25.4371ZM87.1577 11.5416V14.1614H78.5918V11.5416H87.1577Z" fill="white"/>
<path d="M96.5969 22.3036V16.1135C96.5969 15.6683 96.5241 15.2873 96.3786 14.9705C96.233 14.6452 96.0062 14.3926 95.6979 14.2128C95.3983 14.033 95.0087 13.9431 94.5293 13.9431C94.1183 13.9431 93.763 14.0159 93.4633 14.1614C93.1637 14.2984 92.9325 14.4996 92.7699 14.765C92.6072 15.0219 92.5258 15.3258 92.5258 15.6768H88.8272C88.8272 15.0861 88.9642 14.5253 89.2382 13.9945C89.5121 13.4637 89.9103 12.9971 90.4325 12.5947C90.9548 12.1837 91.5755 11.8626 92.2947 11.6315C93.0224 11.4003 93.8358 11.2847 94.7347 11.2847C95.8135 11.2847 96.7724 11.4645 97.6115 11.8241C98.4505 12.1837 99.1097 12.7231 99.5892 13.4423C100.077 14.1614 100.321 15.0604 100.321 16.1392V22.0852C100.321 22.8472 100.368 23.4722 100.462 23.9602C100.557 24.4397 100.694 24.8592 100.873 25.2188V25.4371H97.1363C96.9565 25.0604 96.8195 24.5895 96.7253 24.0244C96.6397 23.4508 96.5969 22.8772 96.5969 22.3036ZM97.0849 16.9739L97.1106 19.0673H95.043C94.555 19.0673 94.1312 19.1229 93.7716 19.2342C93.412 19.3455 93.1166 19.5039 92.8854 19.7094C92.6543 19.9063 92.483 20.1375 92.3717 20.4029C92.269 20.6683 92.2176 20.9594 92.2176 21.2762C92.2176 21.5929 92.2904 21.8798 92.4359 22.1366C92.5815 22.3849 92.7913 22.5818 93.0652 22.7274C93.3392 22.8643 93.6603 22.9328 94.0284 22.9328C94.5849 22.9328 95.0687 22.8215 95.4796 22.5989C95.8906 22.3763 96.2074 22.1024 96.43 21.777C96.6611 21.4517 96.781 21.1435 96.7895 20.8524L97.7656 22.4191C97.6286 22.7702 97.4402 23.134 97.2005 23.5107C96.9693 23.8875 96.674 24.2428 96.3144 24.5767C95.9548 24.902 95.5224 25.1717 95.0173 25.3857C94.5121 25.5912 93.9128 25.694 93.2193 25.694C92.3375 25.694 91.537 25.5185 90.8178 25.1674C90.1072 24.8078 89.5421 24.3155 89.1226 23.6905C88.7116 23.057 88.5062 22.3378 88.5062 21.533C88.5062 20.8053 88.6431 20.1589 88.9171 19.5938C89.1911 19.0287 89.5935 18.5536 90.1243 18.1683C90.6637 17.7744 91.3358 17.4791 92.1406 17.2822C92.9454 17.0767 93.8786 16.9739 94.9402 16.9739H97.0849Z" fill="white"/>
<path d="M103.172 5.7111H106.871V22.2522L106.498 25.4371H103.172V5.7111ZM115.668 18.3481V18.6178C115.668 19.6537 115.557 20.6041 115.334 21.4688C115.12 22.3335 114.786 23.0827 114.332 23.7162C113.879 24.3412 113.314 24.8292 112.637 25.1803C111.969 25.5227 111.182 25.694 110.274 25.694C109.427 25.694 108.69 25.5227 108.065 25.1803C107.449 24.8378 106.931 24.3541 106.511 23.7291C106.092 23.1041 105.754 22.372 105.497 21.533C105.24 20.694 105.047 19.7779 104.919 18.7847V18.194C105.047 17.2008 105.24 16.2847 105.497 15.4457C105.754 14.6066 106.092 13.8746 106.511 13.2496C106.931 12.6246 107.449 12.1409 108.065 11.7984C108.682 11.456 109.409 11.2847 110.248 11.2847C111.165 11.2847 111.961 11.4602 112.637 11.8113C113.322 12.1537 113.887 12.6417 114.332 13.2753C114.786 13.9003 115.12 14.6452 115.334 15.5099C115.557 16.3661 115.668 17.3121 115.668 18.3481ZM111.969 18.6178V18.3481C111.969 17.783 111.927 17.2522 111.841 16.7556C111.764 16.2505 111.627 15.8096 111.43 15.4328C111.233 15.0476 110.963 14.7436 110.621 14.521C110.287 14.2984 109.855 14.1871 109.324 14.1871C108.819 14.1871 108.391 14.2727 108.04 14.444C107.689 14.6152 107.397 14.8549 107.166 15.1631C106.944 15.4714 106.777 15.8395 106.665 16.2676C106.554 16.6871 106.486 17.1494 106.46 17.6546V19.3369C106.486 20.0133 106.597 20.6126 106.794 21.1349C106.999 21.6486 107.308 22.0553 107.718 22.3549C108.138 22.646 108.682 22.7916 109.349 22.7916C109.872 22.7916 110.304 22.6888 110.647 22.4834C110.989 22.2779 111.254 21.9868 111.443 21.6101C111.64 21.2334 111.777 20.7924 111.854 20.2873C111.931 19.7736 111.969 19.2171 111.969 18.6178Z" fill="white"/>
<path d="M125.467 22.3036V16.1135C125.467 15.6683 125.394 15.2873 125.248 14.9705C125.103 14.6452 124.876 14.3926 124.568 14.2128C124.268 14.033 123.879 13.9431 123.399 13.9431C122.988 13.9431 122.633 14.0159 122.333 14.1614C122.034 14.2984 121.802 14.4996 121.64 14.765C121.477 15.0219 121.396 15.3258 121.396 15.6768H117.697C117.697 15.0861 117.834 14.5253 118.108 13.9945C118.382 13.4637 118.78 12.9971 119.302 12.5947C119.825 12.1837 120.445 11.8626 121.165 11.6315C121.892 11.4003 122.706 11.2847 123.605 11.2847C124.683 11.2847 125.642 11.4645 126.481 11.8241C127.32 12.1837 127.98 12.7231 128.459 13.4423C128.947 14.1614 129.191 15.0604 129.191 16.1392V22.0852C129.191 22.8472 129.238 23.4722 129.332 23.9602C129.427 24.4397 129.564 24.8592 129.743 25.2188V25.4371H126.006C125.826 25.0604 125.689 24.5895 125.595 24.0244C125.51 23.4508 125.467 22.8772 125.467 22.3036ZM125.955 16.9739L125.98 19.0673H123.913C123.425 19.0673 123.001 19.1229 122.641 19.2342C122.282 19.3455 121.986 19.5039 121.755 19.7094C121.524 19.9063 121.353 20.1375 121.242 20.4029C121.139 20.6683 121.087 20.9594 121.087 21.2762C121.087 21.5929 121.16 21.8798 121.306 22.1366C121.451 22.3849 121.661 22.5818 121.935 22.7274C122.209 22.8643 122.53 22.9328 122.898 22.9328C123.455 22.9328 123.939 22.8215 124.349 22.5989C124.76 22.3763 125.077 22.1024 125.3 21.777C125.531 21.4517 125.651 21.1435 125.659 20.8524L126.635 22.4191C126.498 22.7702 126.31 23.134 126.07 23.5107C125.839 23.8875 125.544 24.2428 125.184 24.5767C124.825 24.902 124.392 25.1717 123.887 25.3857C123.382 25.5912 122.783 25.694 122.089 25.694C121.207 25.694 120.407 25.5185 119.688 25.1674C118.977 24.8078 118.412 24.3155 117.992 23.6905C117.581 23.057 117.376 22.3378 117.376 21.533C117.376 20.8053 117.513 20.1589 117.787 19.5938C118.061 19.0287 118.463 18.5536 118.994 18.1683C119.534 17.7744 120.206 17.4791 121.01 17.2822C121.815 17.0767 122.748 16.9739 123.81 16.9739H125.955Z" fill="white"/>
</svg>
