<svg width="226" height="45" viewBox="0 0 226 45" fill="none" xmlns="http://www.w3.org/2000/svg">
<path d="M58.6268 10.786V6.12842H43.9419V38.1284H58.6268V33.4709C55.6186 33.4709 52.7336 32.2758 50.6065 30.1487C48.4794 28.0216 47.2844 25.1366 47.2844 22.1284C47.2844 19.1202 48.4794 16.2352 50.6065 14.1081C52.7336 11.981 55.6186 10.786 58.6268 10.786Z" fill="#171717"/>
<path d="M58.625 10.786V33.4709C61.6332 33.4709 64.5183 32.2759 66.6454 30.1488C68.7725 28.0216 69.9675 25.1367 69.9675 22.1285C69.9675 19.1203 68.7725 16.2352 66.6454 14.1081C64.5183 11.981 61.6332 10.786 58.625 10.786Z" fill="#171717"/>
<path d="M179.996 17.4592C181.327 17.4592 182.407 16.3798 182.407 15.0483C182.407 13.7168 181.327 12.6373 179.996 12.6373C178.664 12.6373 177.585 13.7168 177.585 15.0483C177.585 16.3798 178.664 17.4592 179.996 17.4592Z" fill="#171717"/>
<path d="M85.1749 26.991L89.5798 12.1965H93.8692L87.3581 30.8951H84.5328L85.1749 26.991ZM81.1167 12.1965L85.5088 26.991L86.1766 30.8951H83.3256L76.853 12.1965H81.1167Z" fill="#171717"/>
<path d="M102.294 27.7616V21.5715C102.294 21.1263 102.221 20.7453 102.076 20.4285C101.93 20.1032 101.703 19.8506 101.395 19.6708C101.095 19.491 100.706 19.4011 100.226 19.4011C99.8153 19.4011 99.46 19.4739 99.1603 19.6194C98.8607 19.7564 98.6295 19.9576 98.4668 20.223C98.3042 20.4799 98.2228 20.7838 98.2228 21.1349H94.5242C94.5242 20.5441 94.6612 19.9833 94.9352 19.4525C95.2091 18.9217 95.6072 18.4551 96.1295 18.0527C96.6518 17.6417 97.2725 17.3206 97.9917 17.0895C98.7194 16.8583 99.5328 16.7427 100.432 16.7427C101.51 16.7427 102.469 16.9225 103.308 17.2821C104.147 17.6417 104.807 18.1811 105.286 18.9003C105.774 19.6194 106.018 20.5184 106.018 21.5972V27.5432C106.018 28.3052 106.065 28.9302 106.159 29.4182C106.254 29.8977 106.391 30.3172 106.57 30.6768V30.8951H102.833C102.653 30.5184 102.516 30.0475 102.422 29.4825C102.337 28.9088 102.294 28.3352 102.294 27.7616ZM102.782 22.4319L102.808 24.5253H100.74C100.252 24.5253 99.8281 24.5809 99.4685 24.6922C99.109 24.8035 98.8136 24.9619 98.5824 25.1674C98.3512 25.3643 98.18 25.5955 98.0687 25.8609C97.966 26.1263 97.9146 26.4174 97.9146 26.7342C97.9146 27.0509 97.9874 27.3378 98.1329 27.5946C98.2785 27.8429 98.4882 28.0398 98.7622 28.1854C99.0362 28.3224 99.3572 28.3908 99.7254 28.3908C100.282 28.3908 100.766 28.2795 101.177 28.0569C101.588 27.8343 101.904 27.5604 102.127 27.235C102.358 26.9097 102.478 26.6015 102.487 26.3104L103.463 27.8771C103.326 28.2282 103.137 28.592 102.897 28.9688C102.666 29.3455 102.371 29.7008 102.011 30.0347C101.652 30.36 101.219 30.6297 100.714 30.8438C100.209 31.0492 99.6098 31.152 98.9163 31.152C98.0345 31.152 97.234 30.9765 96.5148 30.6254C95.8042 30.2658 95.2391 29.7736 94.8196 29.1486C94.4086 28.515 94.2031 27.7958 94.2031 26.991C94.2031 26.2633 94.3401 25.6169 94.6141 25.0518C94.8881 24.4867 95.2905 24.0116 95.8213 23.6263C96.3607 23.2325 97.0328 22.9371 97.8376 22.7402C98.6423 22.5347 99.5756 22.4319 100.637 22.4319H102.782Z" fill="#171717"/>
<path d="M112.491 19.9662V30.8951H108.792V16.9996H112.26L112.491 19.9662ZM111.951 23.4593H110.95C110.95 22.4319 111.082 21.5073 111.348 20.6854C111.613 19.8549 111.986 19.1486 112.465 18.5664C112.945 17.9756 113.514 17.5261 114.173 17.2179C114.841 16.9011 115.586 16.7427 116.408 16.7427C117.058 16.7427 117.653 16.8369 118.193 17.0253C118.732 17.2136 119.195 17.5133 119.58 17.9242C119.974 18.3352 120.273 18.8789 120.479 19.5552C120.693 20.2316 120.8 21.0578 120.8 22.0338V30.8951H117.076V22.021C117.076 21.4045 116.99 20.9251 116.819 20.5826C116.647 20.2402 116.395 20.0004 116.061 19.8635C115.736 19.7179 115.333 19.6451 114.854 19.6451C114.357 19.6451 113.925 19.7436 113.557 19.9405C113.197 20.1374 112.897 20.4114 112.658 20.7624C112.427 21.1049 112.251 21.5073 112.131 21.9696C112.011 22.4319 111.951 22.9285 111.951 23.4593Z" fill="#171717"/>
<path d="M128.326 30.8951H124.601V15.7667C124.601 14.7136 124.807 13.8275 125.218 13.1083C125.637 12.3806 126.224 11.8326 126.977 11.4645C127.739 11.0878 128.642 10.8994 129.687 10.8994C130.029 10.8994 130.359 10.9251 130.676 10.9765C130.993 11.0193 131.301 11.0749 131.6 11.1434L131.562 13.9302C131.399 13.8874 131.228 13.8575 131.048 13.8403C130.868 13.8232 130.659 13.8147 130.419 13.8147C129.974 13.8147 129.593 13.8917 129.276 14.0458C128.968 14.1914 128.732 14.4097 128.57 14.7008C128.407 14.9919 128.326 15.3472 128.326 15.7667V30.8951ZM131.1 16.9996V19.6194H122.534V16.9996H131.1Z" fill="#171717"/>
<path d="M140.539 27.7616V21.5715C140.539 21.1263 140.466 20.7453 140.32 20.4285C140.175 20.1032 139.948 19.8506 139.64 19.6708C139.34 19.491 138.951 19.4011 138.471 19.4011C138.06 19.4011 137.705 19.4739 137.405 19.6194C137.106 19.7564 136.874 19.9576 136.712 20.223C136.549 20.4799 136.468 20.7838 136.468 21.1349H132.769C132.769 20.5441 132.906 19.9833 133.18 19.4525C133.454 18.9217 133.852 18.4551 134.374 18.0527C134.897 17.6417 135.517 17.3206 136.237 17.0895C136.964 16.8583 137.778 16.7427 138.677 16.7427C139.755 16.7427 140.714 16.9225 141.553 17.2821C142.392 17.6417 143.052 18.1811 143.531 18.9003C144.019 19.6194 144.263 20.5184 144.263 21.5972V27.5432C144.263 28.3052 144.31 28.9302 144.404 29.4182C144.498 29.8977 144.635 30.3172 144.815 30.6768V30.8951H141.078C140.898 30.5184 140.761 30.0475 140.667 29.4825C140.582 28.9088 140.539 28.3352 140.539 27.7616ZM141.027 22.4319L141.052 24.5253H138.985C138.497 24.5253 138.073 24.5809 137.713 24.6922C137.354 24.8035 137.058 24.9619 136.827 25.1674C136.596 25.3643 136.425 25.5955 136.314 25.8609C136.211 26.1263 136.159 26.4174 136.159 26.7342C136.159 27.0509 136.232 27.3378 136.378 27.5946C136.523 27.8429 136.733 28.0398 137.007 28.1854C137.281 28.3224 137.602 28.3908 137.97 28.3908C138.527 28.3908 139.01 28.2795 139.421 28.0569C139.832 27.8343 140.149 27.5604 140.372 27.235C140.603 26.9097 140.723 26.6015 140.731 26.3104L141.707 27.8771C141.57 28.2282 141.382 28.592 141.142 28.9688C140.911 29.3455 140.616 29.7008 140.256 30.0347C139.897 30.36 139.464 30.6297 138.959 30.8438C138.454 31.0492 137.855 31.152 137.161 31.152C136.279 31.152 135.479 30.9765 134.76 30.6254C134.049 30.2658 133.484 29.7736 133.064 29.1486C132.653 28.515 132.448 27.7958 132.448 26.991C132.448 26.2633 132.585 25.6169 132.859 25.0518C133.133 24.4867 133.535 24.0116 134.066 23.6263C134.606 23.2325 135.278 22.9371 136.082 22.7402C136.887 22.5347 137.82 22.4319 138.882 22.4319H141.027Z" fill="#171717"/>
<path d="M147.114 11.1691H150.813V27.7102L150.44 30.8951H147.114V11.1691ZM159.61 23.8061V24.0758C159.61 25.1117 159.498 26.0621 159.276 26.9268C159.062 27.7915 158.728 28.5407 158.274 29.1742C157.82 29.7992 157.255 30.2872 156.579 30.6383C155.911 30.9807 155.123 31.152 154.216 31.152C153.368 31.152 152.632 30.9807 152.007 30.6383C151.391 30.2958 150.873 29.8121 150.453 29.1871C150.034 28.5621 149.695 27.8301 149.439 26.991C149.182 26.152 148.989 25.2359 148.861 24.2427V23.652C148.989 22.6588 149.182 21.7427 149.439 20.9037C149.695 20.0646 150.034 19.3326 150.453 18.7076C150.873 18.0826 151.391 17.5989 152.007 17.2564C152.623 16.914 153.351 16.7427 154.19 16.7427C155.106 16.7427 155.903 16.9182 156.579 17.2693C157.264 17.6117 157.829 18.0998 158.274 18.7333C158.728 19.3583 159.062 20.1032 159.276 20.9679C159.498 21.8241 159.61 22.7701 159.61 23.8061ZM155.911 24.0758V23.8061C155.911 23.241 155.868 22.7102 155.783 22.2136C155.706 21.7085 155.569 21.2676 155.372 20.8908C155.175 20.5056 154.905 20.2016 154.563 19.979C154.229 19.7564 153.796 19.6451 153.266 19.6451C152.76 19.6451 152.332 19.7307 151.981 19.902C151.63 20.0732 151.339 20.3129 151.108 20.6212C150.885 20.9294 150.719 21.2975 150.607 21.7256C150.496 22.1451 150.427 22.6075 150.402 23.1126V24.795C150.427 25.4713 150.539 26.0706 150.736 26.5929C150.941 27.1066 151.249 27.5133 151.66 27.8129C152.08 28.104 152.623 28.2496 153.291 28.2496C153.814 28.2496 154.246 28.1468 154.588 27.9414C154.931 27.7359 155.196 27.4448 155.385 27.0681C155.582 26.6914 155.719 26.2504 155.796 25.7453C155.873 25.2316 155.911 24.6751 155.911 24.0758Z" fill="#171717"/>
<path d="M169.409 27.7616V21.5715C169.409 21.1263 169.336 20.7453 169.19 20.4285C169.045 20.1032 168.818 19.8506 168.51 19.6708C168.21 19.491 167.82 19.4011 167.341 19.4011C166.93 19.4011 166.575 19.4739 166.275 19.6194C165.975 19.7564 165.744 19.9576 165.582 20.223C165.419 20.4799 165.338 20.7838 165.338 21.1349H161.639C161.639 20.5441 161.776 19.9833 162.05 19.4525C162.324 18.9217 162.722 18.4551 163.244 18.0527C163.766 17.6417 164.387 17.3206 165.106 17.0895C165.834 16.8583 166.647 16.7427 167.546 16.7427C168.625 16.7427 169.584 16.9225 170.423 17.2821C171.262 17.6417 171.921 18.1811 172.401 18.9003C172.889 19.6194 173.133 20.5184 173.133 21.5972V27.5432C173.133 28.3052 173.18 28.9302 173.274 29.4182C173.368 29.8977 173.505 30.3172 173.685 30.6768V30.8951H169.948C169.768 30.5184 169.631 30.0475 169.537 29.4825C169.451 28.9088 169.409 28.3352 169.409 27.7616ZM169.897 22.4319L169.922 24.5253H167.855C167.367 24.5253 166.943 24.5809 166.583 24.6922C166.224 24.8035 165.928 24.9619 165.697 25.1674C165.466 25.3643 165.295 25.5955 165.183 25.8609C165.081 26.1263 165.029 26.4174 165.029 26.7342C165.029 27.0509 165.102 27.3378 165.248 27.5946C165.393 27.8429 165.603 28.0398 165.877 28.1854C166.151 28.3224 166.472 28.3908 166.84 28.3908C167.397 28.3908 167.88 28.2795 168.291 28.0569C168.702 27.8343 169.019 27.5604 169.242 27.235C169.473 26.9097 169.593 26.6015 169.601 26.3104L170.577 27.8771C170.44 28.2282 170.252 28.592 170.012 28.9688C169.781 29.3455 169.486 29.7008 169.126 30.0347C168.766 30.36 168.334 30.6297 167.829 30.8438C167.324 31.0492 166.725 31.152 166.031 31.152C165.149 31.152 164.349 30.9765 163.629 30.6254C162.919 30.2658 162.354 29.7736 161.934 29.1486C161.523 28.515 161.318 27.7958 161.318 26.991C161.318 26.2633 161.455 25.6169 161.729 25.0518C162.003 24.4867 162.405 24.0116 162.936 23.6263C163.475 23.2325 164.147 22.9371 164.952 22.7402C165.757 22.5347 166.69 22.4319 167.752 22.4319H169.897Z" fill="#171717"/>
</svg>
