<svg width="26" height="37" viewBox="0 0 26 37" fill="none" xmlns="http://www.w3.org/2000/svg">
<g clip-path="url(#clip0_7028_712)">
<path fill-rule="evenodd" clip-rule="evenodd" d="M15.5918 15.6059L13.0001 13.0733L10.4083 15.6059C8.98899 16.9929 8.98899 19.2642 10.4083 20.6713L13.0001 23.2039L15.5918 20.6713C17.0111 19.2642 17.0111 16.9929 15.5918 15.6059ZM12.9795 0.12854L3.80544 9.09336C1.27538 11.5657 6.10352e-05 14.8421 6.10352e-05 18.0984C6.10352e-05 21.3547 1.27538 24.6311 3.80544 27.1034L6.39721 29.6361L11.8687 24.2893L9.27696 21.7567C8.24848 20.7517 7.73424 19.425 7.73424 18.0984C7.73424 16.7718 8.24848 15.4451 9.27696 14.4401L18.4716 5.47527L12.9795 0.12854ZM13.0001 36.1285L22.1741 27.1637C24.7247 24.6713 26.0001 21.3949 26.0001 18.1386C26.0001 14.8823 24.7247 11.6059 22.1947 9.13356L19.6029 6.6009L14.1314 11.9476L16.7232 14.4803C17.7516 15.4853 18.2659 16.812 18.2659 18.1386C18.2659 19.4652 17.7516 20.7919 16.7232 21.7969L7.54911 30.7617L13.0001 36.1285Z" fill="white"/>
</g>
<defs>
<clipPath id="clip0_7028_712">
<rect width="26" height="36" fill="white" transform="translate(0 0.128418)"/>
</clipPath>
</defs>
</svg>
