<svg width="149" height="36" viewBox="0 0 149 36" fill="none" xmlns="http://www.w3.org/2000/svg">
<g clip-path="url(#clip0_7069_2871)">
<path fill-rule="evenodd" clip-rule="evenodd" d="M16.2662 15.4774L13.6744 12.9447L11.0826 15.4774C9.6633 16.8643 9.6633 19.1357 11.0826 20.5427L13.6744 23.0754L16.2662 20.5427C17.6855 19.1357 17.6855 16.8643 16.2662 15.4774ZM13.6538 0L4.47976 8.96482C1.94969 11.4372 0.674377 14.7136 0.674377 17.9698C0.674377 21.2261 1.94969 24.5025 4.47976 26.9749L7.07153 29.5075L12.543 24.1608L9.95128 21.6281C8.92279 20.6231 8.40855 19.2965 8.40855 17.9698C8.40855 16.6432 8.92279 15.3166 9.95128 14.3116L19.1459 5.34673L13.6538 0ZM13.6744 36L22.8484 27.0352C25.3991 24.5427 26.6744 21.2663 26.6744 18.01C26.6744 14.7538 25.3991 11.4774 22.869 9.00502L20.2772 6.47236L14.8057 11.8191L17.3975 14.3518C18.426 15.3568 18.9402 16.6834 18.9402 18.01C18.9402 19.3367 18.426 20.6633 17.3975 21.6683L8.22343 30.6332L13.6744 36Z" fill="#0C1228"/>
</g>
<path d="M38.6103 27V24.696H43.4343C44.3143 24.696 44.9943 24.456 45.4743 23.976C45.9543 23.48 46.1943 22.808 46.1943 21.96C46.1943 21.08 45.9383 20.384 45.4263 19.872C44.9143 19.36 44.2023 19.104 43.2903 19.104H38.6103V16.8H43.0743C43.9383 16.8 44.6023 16.592 45.0663 16.176C45.5303 15.76 45.7623 15.16 45.7623 14.376C45.7623 13.608 45.5383 13.024 45.0903 12.624C44.6583 12.224 44.0183 12.024 43.1703 12.024H38.6103V9.72H43.7463C45.2983 9.72 46.5383 10.112 47.4663 10.896C48.4103 11.664 48.8823 12.712 48.8823 14.04C48.8823 14.872 48.6823 15.6 48.2823 16.224C47.8983 16.832 47.3783 17.304 46.7223 17.64C46.0663 17.976 45.3223 18.144 44.4903 18.144L44.6103 17.64C45.4903 17.64 46.2903 17.84 47.0103 18.24C47.7303 18.624 48.2983 19.168 48.7143 19.872C49.1463 20.576 49.3623 21.392 49.3623 22.32C49.3623 23.264 49.1383 24.088 48.6903 24.792C48.2583 25.496 47.6423 26.04 46.8423 26.424C46.0583 26.808 45.1303 27 44.0583 27H38.6103ZM36.1623 27V9.72H39.2823V27H36.1623ZM52.4253 31.92L55.5933 24.816L56.1453 23.904L59.6013 14.76H62.8173L55.4973 31.92H52.4253ZM55.1373 26.88L50.1693 14.76H53.4573L57.6093 25.752L55.1373 26.88ZM70.1611 27.24C68.6571 27.24 67.5451 26.888 66.8251 26.184C66.1211 25.464 65.7691 24.392 65.7691 22.968V11.976L68.8171 10.848V23.04C68.8171 23.632 68.9771 24.072 69.2971 24.36C69.6171 24.648 70.1211 24.792 70.8091 24.792C71.0811 24.792 71.3211 24.776 71.5291 24.744C71.7531 24.696 71.9611 24.64 72.1531 24.576V26.928C71.9611 27.024 71.6891 27.096 71.3371 27.144C70.9851 27.208 70.5931 27.24 70.1611 27.24ZM63.4171 17.136V14.76H72.1531V17.136H63.4171ZM79.5361 27.24C78.2401 27.24 77.1041 26.968 76.1281 26.424C75.1681 25.88 74.4161 25.128 73.8721 24.168C73.3441 23.208 73.0801 22.104 73.0801 20.856C73.0801 19.608 73.3441 18.512 73.8721 17.568C74.4161 16.608 75.1681 15.864 76.1281 15.336C77.0881 14.792 78.2081 14.52 79.4881 14.52C80.7041 14.52 81.7601 14.776 82.6561 15.288C83.5521 15.784 84.2481 16.488 84.7441 17.4C85.2401 18.312 85.4881 19.376 85.4881 20.592C85.4881 20.816 85.4801 21.024 85.4641 21.216C85.4481 21.408 85.4241 21.6 85.3921 21.792H74.9521V19.68H83.0641L82.4401 20.256C82.4401 19.104 82.1761 18.24 81.6481 17.664C81.1201 17.088 80.3841 16.8 79.4401 16.8C78.4161 16.8 77.6001 17.152 76.9921 17.856C76.4001 18.56 76.1041 19.576 76.1041 20.904C76.1041 22.216 76.4001 23.224 76.9921 23.928C77.6001 24.616 78.4561 24.96 79.5601 24.96C80.2001 24.96 80.7601 24.84 81.2401 24.6C81.7201 24.36 82.0721 23.992 82.2961 23.496H85.1521C84.7521 24.648 84.0721 25.56 83.1121 26.232C82.1681 26.904 80.9761 27.24 79.5361 27.24ZM90.5236 27L85.5556 9.72H88.7236L92.9476 25.584H92.0356L95.9476 9.72H99.5476L103.412 25.584H102.524L106.748 9.72H109.772L104.804 27H101.252L97.3156 11.496H98.0596L94.0756 27H90.5236ZM118.258 27C118.178 26.68 118.114 26.328 118.066 25.944C118.034 25.56 118.018 25.096 118.018 24.552H117.922V18.744C117.922 18.104 117.738 17.624 117.37 17.304C117.018 16.968 116.474 16.8 115.738 16.8C115.018 16.8 114.442 16.936 114.01 17.208C113.594 17.464 113.338 17.84 113.242 18.336H110.338C110.466 17.2 111.01 16.28 111.97 15.576C112.93 14.872 114.218 14.52 115.834 14.52C117.514 14.52 118.786 14.904 119.65 15.672C120.514 16.424 120.946 17.536 120.946 19.008V24.552C120.946 24.936 120.97 25.328 121.018 25.728C121.082 26.128 121.17 26.552 121.282 27H118.258ZM114.01 27.24C112.778 27.24 111.794 26.936 111.058 26.328C110.338 25.704 109.978 24.872 109.978 23.832C109.978 22.712 110.386 21.824 111.202 21.168C112.018 20.512 113.17 20.072 114.658 19.848L118.474 19.272V21.192L115.162 21.696C114.442 21.808 113.898 22.008 113.53 22.296C113.178 22.584 113.002 22.984 113.002 23.496C113.002 23.96 113.17 24.32 113.506 24.576C113.842 24.816 114.306 24.936 114.898 24.936C115.762 24.936 116.482 24.72 117.058 24.288C117.634 23.856 117.922 23.328 117.922 22.704L118.258 24.552C117.938 25.432 117.41 26.104 116.674 26.568C115.954 27.016 115.066 27.24 114.01 27.24ZM126.714 27L121.818 14.76H125.082L128.994 26.016H127.386L131.298 14.76H134.466L129.546 27H126.714ZM141.317 27.24C140.021 27.24 138.885 26.968 137.909 26.424C136.949 25.88 136.197 25.128 135.653 24.168C135.125 23.208 134.861 22.104 134.861 20.856C134.861 19.608 135.125 18.512 135.653 17.568C136.197 16.608 136.949 15.864 137.909 15.336C138.869 14.792 139.989 14.52 141.269 14.52C142.485 14.52 143.541 14.776 144.437 15.288C145.333 15.784 146.029 16.488 146.525 17.4C147.021 18.312 147.269 19.376 147.269 20.592C147.269 20.816 147.261 21.024 147.245 21.216C147.229 21.408 147.205 21.6 147.173 21.792H136.733V19.68H144.845L144.221 20.256C144.221 19.104 143.957 18.24 143.429 17.664C142.901 17.088 142.165 16.8 141.221 16.8C140.197 16.8 139.381 17.152 138.773 17.856C138.181 18.56 137.885 19.576 137.885 20.904C137.885 22.216 138.181 23.224 138.773 23.928C139.381 24.616 140.237 24.96 141.341 24.96C141.981 24.96 142.541 24.84 143.021 24.6C143.501 24.36 143.853 23.992 144.077 23.496H146.933C146.533 24.648 145.853 25.56 144.893 26.232C143.949 26.904 142.757 27.24 141.317 27.24Z" fill="#0C1228"/>
<defs>
<clipPath id="clip0_7069_2871">
<rect width="26" height="36" fill="white" transform="translate(0.674316)"/>
</clipPath>
</defs>
</svg>
