<svg width="60" height="16" viewBox="0 0 60 16" fill="none" xmlns="http://www.w3.org/2000/svg">
<path d="M22.4058 3.95508H19.0899C18.863 3.95508 18.67 4.11993 18.6346 4.34393L17.2935 12.8467C17.2669 13.0145 17.3968 13.1657 17.567 13.1657H19.15C19.3769 13.1657 19.5699 13.0009 19.6053 12.7764L19.967 10.4831C20.0019 10.2586 20.1953 10.0937 20.4218 10.0937H21.4715C23.6557 10.0937 24.9163 9.03677 25.2455 6.94223C25.3939 6.02587 25.2518 5.30587 24.8227 4.80162C24.3515 4.24793 23.5156 3.95508 22.4058 3.95508ZM22.7883 7.06053C22.607 8.25035 21.6979 8.25035 20.8189 8.25035H20.3185L20.6695 6.02829C20.6904 5.89399 20.8067 5.79508 20.9425 5.79508H21.1718C21.7706 5.79508 22.3355 5.79508 22.6273 6.13641C22.8014 6.34005 22.8547 6.64259 22.7883 7.06053Z" fill="#253B80"/>
<path d="M32.3169 7.02238H30.729C30.5938 7.02238 30.4769 7.12129 30.4561 7.25559L30.3858 7.69971L30.2747 7.53874C29.931 7.03983 29.1644 6.87305 28.3994 6.87305C26.6447 6.87305 25.146 8.20202 24.8541 10.0663C24.7024 10.9962 24.9181 11.8854 25.4457 12.5055C25.9295 13.0757 26.6219 13.3133 27.4457 13.3133C28.8595 13.3133 29.6435 12.4042 29.6435 12.4042L29.5727 12.8454C29.546 13.0141 29.676 13.1654 29.8452 13.1654H31.2755C31.5029 13.1654 31.6949 13.0006 31.7307 12.7761L32.5889 7.34141C32.6161 7.17414 32.4866 7.02238 32.3169 7.02238ZM30.1036 10.1128C29.9504 11.02 29.2304 11.6289 28.3121 11.6289C27.851 11.6289 27.4825 11.481 27.2459 11.2008C27.0112 10.9225 26.922 10.5264 26.9967 10.0852C27.1397 9.18577 27.8718 8.55693 28.7761 8.55693C29.227 8.55693 29.5935 8.70674 29.835 8.98941C30.0769 9.27499 30.1729 9.67353 30.1036 10.1128Z" fill="#253B80"/>
<path d="M40.7741 7.02344H39.1785C39.0262 7.02344 38.8832 7.09907 38.7969 7.22562L36.5962 10.4673L35.6633 7.35217C35.6046 7.15726 35.4248 7.02344 35.2211 7.02344H33.6531C33.4626 7.02344 33.3302 7.20962 33.3908 7.38901L35.1484 12.5468L33.496 14.8794C33.3661 15.0632 33.497 15.3158 33.7215 15.3158H35.3152C35.4665 15.3158 35.608 15.2421 35.6939 15.118L41.001 7.45738C41.128 7.2741 40.9976 7.02344 40.7741 7.02344Z" fill="#253B80"/>
<path d="M46.0571 3.95508H42.7408C42.5143 3.95508 42.3214 4.11993 42.286 4.34393L40.9449 12.8467C40.9182 13.0145 41.0482 13.1657 41.2174 13.1657H42.9192C43.0773 13.1657 43.2125 13.0504 43.2373 12.8933L43.6179 10.4831C43.6528 10.2586 43.8462 10.0937 44.0726 10.0937H45.1219C47.3066 10.0937 48.5667 9.03677 48.8964 6.94223C49.0453 6.02587 48.9022 5.30587 48.4731 4.80162C48.0023 4.24793 47.1669 3.95508 46.0571 3.95508ZM46.4397 7.06053C46.2588 8.25035 45.3497 8.25035 44.4702 8.25035H43.9703L44.3219 6.02829C44.3427 5.89399 44.4581 5.79508 44.5943 5.79508H44.8237C45.422 5.79508 45.9873 5.79508 46.2792 6.13641C46.4533 6.34005 46.5061 6.64259 46.4397 7.06053Z" fill="#179BD7"/>
<path d="M55.9682 7.02238H54.3813C54.245 7.02238 54.1291 7.12129 54.1088 7.25559L54.0385 7.69971L53.927 7.53874C53.5832 7.03983 52.8171 6.87305 52.0521 6.87305C50.2974 6.87305 48.7992 8.20202 48.5073 10.0663C48.3561 10.9962 48.5708 11.8854 49.0984 12.5055C49.5832 13.0757 50.2746 13.3133 51.0984 13.3133C52.5122 13.3133 53.2962 12.4042 53.2962 12.4042L53.2254 12.8454C53.1987 13.0141 53.3287 13.1654 53.4988 13.1654H54.9287C55.1551 13.1654 55.3481 13.0006 55.3834 12.7761L56.2421 7.34141C56.2683 7.17414 56.1384 7.02238 55.9682 7.02238ZM53.7548 10.1128C53.6026 11.02 52.8816 11.6289 51.9633 11.6289C51.5032 11.6289 51.1338 11.481 50.8971 11.2008C50.6625 10.9225 50.5742 10.5264 50.6479 10.0852C50.7919 9.18577 51.5231 8.55693 52.4273 8.55693C52.8782 8.55693 53.2448 8.70674 53.4862 8.98941C53.7291 9.27499 53.8251 9.67353 53.7548 10.1128Z" fill="#179BD7"/>
<path d="M57.84 4.18878L56.4791 12.8472C56.4524 13.015 56.5823 13.1662 56.7516 13.1662H58.1198C58.3472 13.1662 58.5402 13.0014 58.5751 12.7769L59.9171 4.27459C59.9438 4.10684 59.8139 3.95508 59.6446 3.95508H58.1125C57.9773 3.95556 57.8609 4.05447 57.84 4.18878Z" fill="#179BD7"/>
<path d="M3.52313 14.8185L3.77671 13.2078L3.21186 13.1947H0.514648L2.38907 1.30963C2.39489 1.27375 2.4138 1.24029 2.44144 1.21654C2.46907 1.19278 2.50447 1.17969 2.54132 1.17969H7.08919C8.59901 1.17969 9.64095 1.49387 10.185 2.11399C10.44 2.4049 10.6024 2.7089 10.681 3.04344C10.7634 3.39448 10.7648 3.81387 10.6843 4.32538L10.6785 4.36272V4.69048L10.9336 4.83496C11.1483 4.9489 11.319 5.07932 11.4499 5.22866C11.6681 5.47738 11.8092 5.79351 11.8688 6.16829C11.9304 6.55375 11.91 7.01241 11.8092 7.53169C11.6928 8.12902 11.5047 8.64926 11.2506 9.07496C11.017 9.4672 10.7193 9.79254 10.3658 10.0447C10.0283 10.2842 9.62737 10.466 9.17404 10.5824C8.73477 10.6968 8.23392 10.7545 7.68459 10.7545H7.33065C7.07756 10.7545 6.83174 10.8456 6.63877 11.009C6.44532 11.1758 6.31732 11.4037 6.27804 11.6529L6.25138 11.7979L5.80338 14.6367L5.78301 14.7409C5.77768 14.7739 5.76847 14.7904 5.75489 14.8015C5.74277 14.8117 5.72532 14.8185 5.70835 14.8185H3.52313Z" fill="#253B80"/>
<path d="M11.1744 4.40039C11.1608 4.48718 11.1453 4.57591 11.1278 4.66706C10.5281 7.74633 8.4762 8.81009 5.8556 8.81009H4.52129C4.20081 8.81009 3.93075 9.04281 3.88081 9.35894L3.19766 13.6915L3.0042 14.9197C2.97172 15.1272 3.13172 15.3143 3.34117 15.3143H5.70772C5.98796 15.3143 6.22602 15.1107 6.27014 14.8343L6.29341 14.7141L6.73899 11.8865L6.7676 11.7313C6.81123 11.454 7.04978 11.2503 7.33002 11.2503H7.68396C9.97681 11.2503 11.7717 10.3194 12.2963 7.6256C12.5155 6.50027 12.402 5.56063 11.8221 4.89978C11.6466 4.70051 11.4289 4.53518 11.1744 4.40039Z" fill="#179BD7"/>
<path d="M10.547 4.15082C10.4554 4.12415 10.3609 4.09991 10.2639 4.07809C10.1664 4.05676 10.0666 4.03785 9.96377 4.02137C9.60401 3.96318 9.20983 3.93555 8.78753 3.93555H5.22292C5.13516 3.93555 5.05177 3.95543 4.9771 3.9913C4.81274 4.07033 4.69056 4.22597 4.66098 4.41652L3.90268 9.21942L3.88086 9.35955C3.9308 9.04342 4.20086 8.8107 4.52134 8.8107H5.85565C8.47625 8.8107 10.5281 7.74646 11.1279 4.66767C11.1458 4.57652 11.1609 4.48779 11.1744 4.401C11.0227 4.32052 10.8583 4.25167 10.6813 4.193C10.6377 4.17846 10.5926 4.1644 10.547 4.15082Z" fill="#222D65"/>
<path d="M4.66133 4.41644C4.6909 4.2259 4.81308 4.07026 4.97745 3.99171C5.0526 3.95584 5.13551 3.93596 5.22327 3.93596H8.78787C9.21018 3.93596 9.60436 3.96359 9.96412 4.02178C10.0669 4.03826 10.1668 4.05717 10.2642 4.0785C10.3612 4.10032 10.4558 4.12456 10.5474 4.15123C10.593 4.16481 10.6381 4.17887 10.6822 4.19293C10.8591 4.25159 11.0235 4.32093 11.1753 4.40093C11.3537 3.26299 11.1738 2.4882 10.5585 1.78662C9.88024 1.01426 8.65599 0.683594 7.08945 0.683594H2.54157C2.22157 0.683594 1.9486 0.916321 1.89915 1.23293L0.00484307 13.2402C-0.0324903 13.4778 0.150782 13.6921 0.390298 13.6921H3.19806L3.90302 9.21935L4.66133 4.41644Z" fill="#253B80"/>
</svg>
